<svg width="254" height="257" viewBox="0 0 254 257" fill="none" xmlns="http://www.w3.org/2000/svg">
<path d="M242.639 167.508C242.044 166.909 241.3 166.46 240.953 166.46C240.605 166.46 238.125 168.306 235.496 170.502C232.817 172.748 230.584 174.495 230.485 174.395C230.435 174.295 228.6 171.051 226.467 167.208C217.785 151.638 207.069 137.315 194.469 124.339C177.949 107.371 161.627 95.144 141.635 84.8134C117.078 72.0873 92.7695 65.0006 65.4843 62.6051C57.1004 61.8565 38.4472 62.3057 29.2695 63.4036C19.7941 64.5515 10.6164 66.2982 10.914 66.897C11.0629 67.1466 11.5093 67.3462 11.9062 67.2464C55.2648 60.8584 97.7304 67.2464 135.682 85.8614C163.314 99.4359 187.97 120.197 207.069 145.998C213.072 154.083 219.422 164.214 223.49 172.149L226.467 177.988L223.986 180.184C221.159 182.729 218.628 184.127 215.057 184.975C212.328 185.674 210.344 187.121 210.344 188.419C210.344 189.367 211.832 190.914 212.824 190.914C213.171 190.914 213.717 191.263 214.015 191.663C214.66 192.561 220.613 193.609 229.443 194.407C238.522 195.156 241.449 195.106 242.044 194.008C242.292 193.509 242.639 188.069 242.788 181.931C242.937 175.742 243.185 170.203 243.384 169.604C243.582 168.905 243.334 168.207 242.639 167.508Z" fill="#1B1B1B"/>
</svg>
