<svg width="226" height="152" viewBox="0 0 226 152" fill="none" xmlns="http://www.w3.org/2000/svg">
<path d="M23.1114 151.658C23.9246 151.439 24.6834 151.015 24.857 150.712C25.0306 150.41 24.6812 147.326 24.1055 143.937C23.5116 140.48 23.1241 137.662 23.2597 137.625C23.3704 137.632 27.0808 137.655 31.4555 137.718C49.2008 137.94 66.889 135.766 84.3597 131.276C107.227 125.367 125.914 117.261 144.803 105.009C168.037 89.9782 186.292 72.3438 201.997 49.7705C206.834 42.8406 215.773 26.3653 219.417 17.8206C223.167 8.9917 226.252 0.122635 225.587 0.0825184C225.298 0.087413 224.903 0.376581 224.791 0.772247C208.611 41.7405 181.879 75.5429 146.878 99.2987C121.376 116.585 91.1751 127.685 59.4134 131.424C49.452 132.611 37.5556 133.078 28.6905 132.654L22.1755 132.328L21.5254 129.069C20.7481 125.333 20.8102 122.43 21.8658 118.894C22.6285 116.167 22.3748 113.715 21.2578 113.066C20.4415 112.592 18.3655 113.115 17.8694 113.98C17.6958 114.282 17.1222 114.583 16.6296 114.643C15.5338 114.755 11.655 119.418 6.5524 126.712C1.3687 134.247 -0.0518103 136.821 0.595719 137.889C0.901326 138.355 5.41066 141.377 10.6207 144.576C15.8737 147.8 20.5186 150.786 20.9349 151.258C21.4372 151.78 22.1627 151.914 23.1114 151.658Z" fill="#1B1B1B"/>
</svg>
