<svg width="122" height="127" viewBox="0 0 122 127" fill="none" xmlns="http://www.w3.org/2000/svg">
<mask id="mask0_350_153" style="mask-type:luminance" maskUnits="userSpaceOnUse" x="24" y="0" width="57" height="33">
<path d="M24.0386 17.4458L75.1576 32.3602L80.2474 14.9149L29.1284 0.000460318L24.0386 17.4458Z" fill="white"/>
</mask>
<g mask="url(#mask0_350_153)">
<path d="M28.3831 10.948C28.3917 11.2863 28.3568 11.527 27.9779 11.564C27.5819 11.6027 27.4946 11.8373 27.6685 12.2643C27.7438 12.4496 27.8047 12.6424 27.8882 12.8223C27.966 12.9913 28.0644 13.1468 28.1864 13.3653C27.8654 13.7381 27.4305 13.9327 26.9644 14.0488C26.9104 14.0632 26.8469 14.008 26.8001 14.0283C26.2416 14.2639 25.6681 14.4638 25.1346 14.7654C24.6692 15.0268 24.6108 15.458 24.8598 15.9461C24.9391 16.1025 24.957 16.3025 25.0234 16.5636C25.0788 16.4229 25.1022 16.3278 25.1522 16.2549C25.1915 16.1958 25.2701 16.1312 25.3225 16.1373C25.3735 16.1444 25.4398 16.2277 25.4461 16.2897C25.5193 16.8873 25.5146 16.8885 25.7739 17.2464C25.6799 17.2464 25.5827 17.2272 25.4895 17.2509C25.3383 17.2878 25.191 17.3494 25.0428 17.3989C25.1341 17.5105 25.2047 17.6892 25.3198 17.7267C26.3739 18.0695 27.4346 18.3973 28.4993 18.704C29.2679 18.923 30.0466 19.111 30.8257 19.29C30.9759 19.3246 31.1603 19.2687 31.3178 19.2023C31.6453 19.0613 31.7422 18.8466 31.3915 18.5404C31.5551 18.4535 31.6683 18.3951 31.851 18.2995C31.8339 18.6839 31.8201 18.9699 31.8061 19.2716C32.2065 19.3884 32.7004 19.5638 33.2116 19.6646C33.3873 19.6989 33.6043 19.5388 33.802 19.4671C33.8212 19.4165 33.84 19.3672 33.8582 19.3163C33.9883 19.4993 34.1147 19.6877 34.2523 19.8638C34.2941 19.9177 34.3719 19.9692 34.4299 19.96C34.8248 19.8949 35.1973 19.933 35.561 20.0731C35.7687 20.1533 36.0092 20.2457 36.2171 20.1887C36.8083 20.0306 37.2926 20.3862 37.8458 20.3961C38.6745 20.4092 39.4994 20.4578 40.3278 20.4904C40.6107 20.5024 40.8914 20.5255 41.174 20.523C42.0052 20.516 42.8386 20.4939 43.6729 20.4838C44.1544 20.4779 44.6347 20.4874 45.1156 20.4761C45.2535 20.4733 45.3978 20.4108 45.5385 20.4022C45.7953 20.3857 46.0558 20.3833 46.3136 20.3827C46.4266 20.3817 46.5387 20.4144 46.6508 20.4014C47.4443 20.3115 48.2359 20.2014 49.0292 20.1271C49.5091 20.0816 49.9893 20.1028 50.4704 20.0681C51.4721 19.9958 52.4756 19.9018 53.4777 19.8283C54.7564 19.7349 56.0325 19.6617 57.3109 19.5656C57.9484 19.5177 58.5891 19.4172 59.2265 19.3771C59.6993 19.3478 60.1717 19.415 60.6444 19.3674C61.206 19.3105 61.7676 19.1777 62.3904 19.0667C62.5129 19.1129 62.7165 19.2599 62.9304 19.2543C63.8043 19.2336 64.6819 19.1395 65.5544 19.1236C66.6087 19.1058 67.6599 19.2466 68.7094 19.1203C70.0295 18.9606 71.3123 19.2813 72.631 19.0205C72.8547 18.9774 73.0794 18.9501 73.2778 18.9179C73.3436 18.7568 73.3957 18.4871 73.4677 18.4715C73.6959 18.4245 74.073 18.3711 74.1375 18.5023C74.435 19.1196 74.825 18.7682 75.2124 18.6265C75.4088 18.5518 75.6125 18.5093 75.8125 18.4527C76.3395 18.3098 76.8659 18.1616 77.3948 18.0272C77.86 17.9068 78.3549 18.0028 78.7827 17.6089C79.011 17.3985 79.2773 17.2397 79.4874 17.0122C79.5888 16.9033 79.6691 16.651 79.6307 16.521C79.5984 16.4044 79.3945 16.2887 79.268 16.3054C78.8999 16.3548 78.7942 16.2168 78.8378 15.7905C78.8762 15.4202 78.5101 15.1291 78.1503 15.1914C77.7408 15.2614 77.4695 15.0659 77.1995 14.7637C77.2852 14.6933 77.3083 14.6635 77.3349 14.6595C77.4799 14.6208 77.6253 14.5887 77.7696 14.5524C77.6664 14.44 77.5825 14.277 77.4563 14.2206C77.204 14.1078 76.927 14.0531 76.5673 13.9482C76.7893 14.597 76.4657 14.8802 76.0748 15.1777C75.9381 14.7864 75.7092 14.7523 75.3461 14.8527C74.9416 14.966 74.5137 14.9091 74.0952 14.9112C74.0357 14.9108 73.9805 14.8385 73.8746 14.7658C74.4255 14.609 74.85 14.776 75.1831 14.3427C75.2152 14.3011 75.414 14.3395 75.459 14.4088C75.6981 14.7752 75.981 14.4422 76.2404 14.4055C76.2462 14.4046 76.2904 14.1548 76.2452 14.1051C75.9914 13.8193 75.7094 13.596 75.4563 13.8344C75.036 13.7745 74.7301 13.7506 74.4338 13.6863C74.2191 13.638 74.0227 13.5076 73.8089 13.4674C72.3884 13.2019 70.9644 12.9485 69.5418 12.6902C68.9795 12.5863 68.4229 12.4631 67.861 12.358C66.8273 12.1648 65.7972 11.9596 64.755 11.7993C64.0087 11.6861 63.2484 11.6394 62.4936 11.5629C62.0312 11.5181 61.5658 11.4764 61.1042 11.4293C60.1534 11.3348 59.2069 11.2141 58.2521 11.1446C57.3433 11.0768 56.4285 11.0634 55.5147 11.0202C54.869 10.9899 54.2284 10.9389 53.5813 10.9212C53.3185 10.9125 53.05 10.9649 52.7829 10.9901C52.7283 10.9951 52.6582 11.0387 52.6172 11.0163C51.9432 10.655 51.1918 10.8395 50.4688 10.8128C49.6073 10.7836 48.748 10.7315 47.884 10.7185C46.8644 10.7006 45.8449 10.705 44.8244 10.713C44.6449 10.7143 44.4539 10.8271 44.2805 10.8078C44.0029 10.7778 43.7417 10.631 43.4632 10.623C43.0309 10.6118 42.5871 10.7005 42.1531 10.6954C41.6451 10.6935 41.141 10.6366 40.6346 10.6026C40.0558 10.5631 39.4748 10.5464 38.8996 10.4792C37.7731 10.3426 36.6524 10.1711 35.5264 10.0255C35.3335 10.0006 35.1326 10.0413 34.939 10.0266C34.6638 10.0038 34.3928 9.95482 34.1207 9.92117C33.7306 9.87529 33.3409 9.82039 32.9503 9.79135C32.4392 9.75461 31.9254 9.71577 31.4096 9.71423C31.0248 9.71434 30.6345 9.7677 30.2474 9.7985C30.2328 9.79945 30.2139 9.81486 30.2061 9.81127C29.7395 9.37591 29.1685 9.6392 28.6306 9.63382C28.1897 9.62932 27.7675 9.43559 27.3265 9.40883C27.059 9.39351 26.7614 9.50399 26.4965 9.62399C26.2524 9.73309 26.3228 9.92351 26.461 10.0827C26.6379 10.2872 26.8041 10.5095 26.9845 10.7098C27.0367 10.7694 27.1228 10.8115 27.2007 10.8212C27.5874 10.8713 27.9776 10.9054 28.3831 10.948ZM40.1285 12.0568C40.317 12.036 40.4866 11.9928 40.65 12.0012C41.124 12.0285 41.5955 12.0759 42.0671 12.1155C42.18 12.1262 42.2951 12.1258 42.4011 12.1567C42.7403 12.2557 43.0663 12.4723 43.4276 12.0864C43.484 12.0258 43.6498 12.0637 43.7533 12.0992C44.0113 12.1888 44.1327 12.2804 43.8537 12.6341C43.5761 12.9869 43.3042 12.9337 43.0126 12.9101C42.2904 12.847 41.5689 12.7658 40.8463 12.6961C40.8065 12.6924 40.7627 12.7175 40.7194 12.7297C40.1243 12.8748 40.1152 12.8643 40.1323 12.0553L40.1285 12.0568ZM44.1821 12.2778C44.56 12.2104 44.8769 12.1395 45.1949 12.1069C45.2508 12.1009 45.349 12.2341 45.3527 12.3123C45.3651 12.5616 44.8739 13.0101 44.5727 13.0686C44.1914 13.1442 44.2868 12.8245 44.2692 12.5855C44.2631 12.5079 44.2304 12.4383 44.1849 12.276L44.1821 12.2778ZM39.69 11.9798C39.736 11.9776 39.7823 11.9741 39.8259 11.9725C39.8523 12.1435 39.9347 12.3309 39.8885 12.4781C39.8576 12.5762 39.6309 12.6826 39.5143 12.6655C39.2296 12.6256 38.9592 12.5179 38.5853 12.4089C38.7895 12.2319 38.9421 12.0386 39.1218 11.9722C39.2072 11.9409 39.3418 12.1579 39.4715 12.278C39.5252 12.2036 39.6076 12.0917 39.688 11.9793L39.69 11.9798ZM75.549 15.8775C75.5549 15.8231 75.5632 15.768 75.5681 15.7133C75.9675 15.72 76.3675 15.7244 76.8166 15.7313C76.4513 16.18 75.962 16.2123 75.549 15.8775ZM28.7211 10.8127C28.9907 10.8548 29.184 10.8706 29.3688 10.9193C29.4459 10.9392 29.5043 11.0268 29.5719 11.0831C29.503 11.1793 29.4227 11.3636 29.3617 11.3602C29.0928 11.3497 28.8292 11.2872 28.5331 11.2373C28.6172 11.0476 28.6804 10.9027 28.7211 10.8127ZM73.2753 14.766C72.9754 14.6079 72.7517 14.4878 72.5142 14.3623C73.0002 13.9318 73.2017 14.0102 73.2753 14.766ZM34.7704 18.524C34.841 18.5851 34.9126 18.6505 34.9828 18.7128C34.8757 18.8906 34.7665 19.0678 34.6593 19.2456C34.5582 19.1677 34.4554 19.0881 34.3554 19.0105C34.4937 18.8471 34.6327 18.6851 34.7711 18.5216L34.7704 18.524ZM40.4781 14.5721C40.1506 15.062 39.8838 15.0821 39.4342 14.6034C39.831 14.5924 40.1177 14.5833 40.4781 14.5721ZM43.9468 14.9675C43.731 15.0365 43.5472 15.1096 43.3609 15.1493C43.2934 15.1649 43.2111 15.1134 43.1526 15.0676C43.134 15.0517 43.1527 14.9383 43.1838 14.8964C43.3448 14.6703 43.8143 14.7171 43.9489 14.9681L43.9468 14.9675ZM36.1092 14.6133C36.1143 14.5468 36.1193 14.4803 36.1247 14.4126C36.3797 14.2205 36.6359 14.013 36.8792 14.638C36.5637 14.6283 36.337 14.6209 36.1092 14.6133ZM45.79 12.5301C45.7725 12.4348 45.7543 12.3419 45.7343 12.2473C45.8769 12.2248 46.0379 12.1503 46.1543 12.1986C46.2418 12.2359 46.3129 12.4278 46.3043 12.552C46.2992 12.6224 46.1142 12.7488 46.0196 12.7512C45.9389 12.7512 45.8656 12.6083 45.79 12.5301ZM37.807 12.481C38.0477 12.3003 38.2537 12.1435 38.4607 11.991L38.5462 12.1831C38.3393 12.3201 38.1341 12.4549 37.9259 12.5889C37.9204 12.5925 37.9067 12.5715 37.807 12.481ZM41.9736 14.5237C41.767 15.0501 41.5108 15.174 41.1603 14.9659C41.4241 14.8233 41.6728 14.6868 41.9736 14.5237ZM78.2019 15.8898C77.8773 15.8317 77.5941 15.7791 77.2447 15.7151C77.7198 15.3559 77.9859 15.4936 78.2019 15.8898Z" fill="#E1299A"/>
</g>
<path d="M69.5615 54.58C69.3016 53.8718 68.9938 54.2563 68.6577 54.4836C67.7937 55.069 66.9027 55.5996 66.0454 56.1961C65.428 56.6262 64.8406 57.1238 64.2459 57.6049C63.4995 58.2077 62.8023 58.885 61.9724 59.3458C61.5628 59.5713 61.2038 59.9721 60.8637 60.3459C60.6487 60.5824 60.4473 60.9052 60.692 61.3019C60.7626 61.2154 60.8089 61.14 60.8693 61.0884C60.9451 61.0256 61.031 60.9736 61.1168 60.9372C61.1332 60.9302 61.2105 61.0403 61.1987 61.0656C61.1553 61.1653 61.1015 61.2738 61.028 61.3399C60.7857 61.5605 60.5332 61.7665 60.2811 61.9713C60.2262 62.0154 60.123 62.0662 60.0939 62.0408C60.0388 61.9946 59.9982 61.8952 59.9979 61.8128C59.9951 61.6369 60.0225 61.4594 60.0384 61.2798C60.3936 61.2371 60.462 61.0898 60.2711 60.6643C59.845 60.8706 59.783 61.2876 59.7461 61.7172C59.7301 61.9046 59.7169 62.0902 59.7023 62.2767C59.5161 62.2707 59.3309 62.265 59.125 62.2585C59.2807 61.9368 59.4022 61.6874 59.568 61.3464C59.1955 61.418 58.9072 61.3679 58.7457 61.7585C58.7255 61.8088 58.6672 61.8532 58.6194 61.8771C58.2759 62.0578 57.9311 62.2316 57.589 62.4114C57.1515 62.6418 56.6834 62.8136 56.2905 63.1223C55.8978 63.4337 55.3379 63.5604 55.2097 64.2691C55.1791 64.4457 54.8907 64.7143 54.7323 64.7191C54.1673 64.7385 53.7254 65.0329 53.2439 65.3798C52.856 65.6599 52.3887 65.7797 52.0836 66.2381C51.184 66.3206 50.5388 67.1489 49.7306 67.5128C49.3375 67.6895 48.9484 67.9014 48.5758 68.1441C48.3607 68.2826 47.9804 68.4343 48.3553 68.8167C48.3873 68.847 48.3412 68.9746 48.3306 69.0604C48.2624 69.0326 48.1528 69.0294 48.1345 68.9784C47.9685 68.4752 47.6846 68.6184 47.3848 68.8615C46.7801 69.3541 46.1908 69.8734 45.5747 70.3404C44.9936 70.7824 44.3787 71.1622 43.7886 71.5858C43.5956 71.7242 43.4308 71.9139 43.2526 72.0815C43.1874 72.1421 43.1306 72.2458 43.0599 72.2683C42.377 72.4871 41.7659 72.8537 41.2868 73.5031C41.2451 73.5589 41.1567 73.6154 41.101 73.6096C40.7523 73.5732 40.5742 73.7251 40.6451 74.2057C40.4079 74.2384 40.1997 74.2509 39.9939 74.3006C39.8929 74.3247 39.7898 74.4017 39.7043 74.4787C39.6851 74.4953 39.7165 74.6678 39.7535 74.6812C39.8513 74.7137 39.9652 74.6985 40.1234 74.7055C40.2064 74.8643 40.3233 75.0853 40.4876 75.4011C40.0969 75.3798 39.8203 75.3618 39.5232 75.3457C39.5227 75.2528 39.5377 75.167 39.5182 75.1012C39.4908 75.0096 39.4363 74.931 39.3949 74.8457C39.3327 74.9452 39.2133 75.0515 39.2162 75.1399C39.2561 76.1171 38.6773 76.7557 38.1693 77.4398C38.0711 77.5719 37.985 77.7114 37.8979 77.8546C37.6737 78.2216 37.4352 78.5806 37.2325 78.9644C37.0077 79.3901 36.8909 79.9231 36.5978 80.2531C36.2391 80.6567 36.1661 81.1685 35.9093 81.5901C35.7579 81.8399 35.4817 82.0024 35.3513 82.2597C35.2449 82.469 35.187 82.8115 35.2609 83.0016C35.3677 83.2758 35.4969 83.644 35.9501 83.4091C36.2317 83.2626 36.4696 83.1595 36.6973 82.864C36.9312 82.5625 37.3163 82.4096 37.6386 82.1992C37.6824 82.1702 37.7713 82.1726 37.8037 82.2056C38.2894 82.7536 38.7994 82.2334 39.3073 82.1216C39.683 82.0391 40.1027 81.976 40.4442 82.0861C41.07 82.2831 41.9466 81.6922 42.0345 80.9247C42.0456 80.8299 42.1104 80.7404 42.1605 80.6256C42.5674 81.1481 42.6477 81.1572 43.1748 80.7752C43.2365 80.7305 43.3068 80.6413 43.3629 80.6459C44.1475 80.7115 44.2809 79.8449 44.6896 79.3762C44.7357 79.3243 44.7383 79.2244 44.8542 79.1302C44.8854 79.3379 44.9172 79.5471 44.9613 79.8396C45.0394 79.6285 45.0875 79.5014 45.1113 79.4313C45.4068 79.4417 45.6729 79.454 45.9292 79.4621C45.9386 79.1003 45.9424 78.8675 45.9489 78.6369C45.9978 78.6211 46.0473 78.6068 46.0988 78.593C46.1797 78.7591 46.2613 78.9266 46.3836 79.1818C46.5695 79.0335 46.7512 78.854 46.957 78.7284C47.3062 78.5167 47.673 78.3468 48.0273 78.1405C48.4281 77.9072 48.819 77.7194 48.9781 77.1021C49.1269 76.5353 49.2743 77.1781 49.4215 77.0564C49.785 76.8828 50.1675 76.7501 50.5046 76.5231C50.7351 76.3695 50.9035 76.0802 51.1061 75.8597C51.1872 75.771 51.319 75.6148 51.3699 75.6375C51.9418 75.8788 52.2639 75.309 52.6734 75.0195C52.7567 74.9615 52.8487 74.9152 52.9383 74.8734C53.4282 74.6491 53.9171 74.4246 54.407 74.2043C54.6484 74.097 54.9111 74.0378 55.1354 73.8942C55.8865 73.4077 56.6594 72.9525 57.3517 72.3679C57.8681 71.9319 58.4277 71.6509 58.9721 71.308C59.093 71.2309 59.1765 71.0658 59.2962 70.974C59.76 70.6232 60.1926 70.0726 60.6363 69.8819C61.0704 69.6937 61.5098 69.4913 61.9192 69.2436C62.5104 68.8882 63.0704 68.4506 63.6376 68.0372C64.1349 67.674 64.63 67.2997 65.1129 66.9101C65.3663 66.7045 65.5883 66.4439 65.8331 66.2226C65.9913 66.0819 66.1673 65.9674 66.339 65.845C66.4007 65.8003 66.5057 65.7891 66.5317 65.7339C66.7978 65.1517 67.3121 64.9007 67.7218 64.5119C67.9612 64.2825 68.2527 64.1285 68.5102 63.924C69.0798 63.4721 69.6364 62.9969 70.2107 62.5517C71.3655 61.6551 72.5401 60.7931 73.6856 59.8795C74.6883 59.0797 75.6656 58.2385 76.6405 57.3941C76.8938 57.174 77.0913 56.8644 77.3205 56.602C77.3762 56.536 77.4556 56.4912 77.5292 56.4512C77.6356 56.3974 77.7576 56.3846 77.8515 56.3127C78.3882 55.8905 78.9138 55.4493 79.4511 55.0246C79.5931 54.9132 79.7649 54.8509 79.9089 54.7401C80.2566 54.4691 80.5973 54.1844 80.939 53.8999C80.9729 53.8706 80.9917 53.7912 81.02 53.785C81.8454 53.6234 82.404 52.8914 83.0049 52.3206C83.6114 51.7423 84.1234 50.9993 84.6002 50.2669C84.9199 49.7774 84.7326 49.4039 84.2235 49.292C83.5078 49.1381 83.3854 48.8645 83.6732 48.0561C83.7291 47.8986 83.8101 47.7498 83.8537 47.5926C83.899 47.4373 83.9452 47.2639 83.9268 47.1148C83.8635 46.6194 82.9963 46.0528 82.5746 46.2512C81.2592 46.8722 79.9541 47.5185 78.6429 48.1551C78.1676 48.3862 77.6826 48.5896 77.2209 48.8534C76.8995 49.038 76.6108 49.3039 76.1895 49.6187C75.7173 49.5319 74.4165 50.3493 74.313 50.8744C74.1028 50.9241 73.8959 50.9134 73.7444 51.0195C73.1123 51.4583 72.5063 51.9479 71.8748 52.3843C71.4113 52.7037 70.9029 52.9304 70.4545 53.2739C70.1795 53.485 69.9721 53.8283 69.7467 54.1271C69.6761 54.2215 69.6494 54.3548 69.563 54.5674L69.5615 54.58ZM63.404 66.716C63.047 66.1323 63.0566 66.0502 63.5798 65.7194C63.7185 65.6305 63.9002 65.6443 64.0553 65.5824C64.1677 65.5381 64.2788 65.4608 64.3705 65.3699C64.7367 65.0051 65.0668 64.5709 65.4682 64.2751C65.7928 64.034 66.0946 63.8255 66.3133 63.4359C66.5874 62.9475 66.9088 62.8387 67.3195 63.0605C67.4592 62.8164 67.5697 62.5285 67.7507 62.3252C68.0131 62.032 68.3163 61.7807 68.6241 61.5517C68.692 61.501 68.8462 61.6205 68.9616 61.6646C68.9029 61.786 68.8699 61.937 68.7854 62.0221C68.4429 62.3625 68.0903 62.6843 67.7343 63.0064C67.6032 63.1263 67.4248 63.1957 67.3238 63.3374C67.0628 63.7016 66.8704 64.1564 66.3622 64.0564C66.2939 64.0444 66.172 64.2008 66.0965 64.3003C65.9601 64.4761 65.8385 64.6693 65.7098 64.8565C65.4538 65.2339 65.1752 65.5028 64.8762 65.2509C64.6845 65.5478 64.5098 65.8169 64.3268 66.0994C63.6561 65.564 63.7164 66.4713 63.4067 66.7142L63.404 66.716ZM63.2138 64.242C63.2518 63.7252 64.3634 62.6318 64.7329 62.737C64.3255 63.372 63.86 63.8686 63.2138 64.242ZM67.5412 60.6295C67.4443 60.7646 67.4161 60.8269 67.3691 60.8668C67.0836 61.114 66.7971 61.361 66.5025 61.5939C66.4579 61.6292 66.3344 61.6206 66.3164 61.584C66.2819 61.5125 66.2609 61.3574 66.2986 61.3227C66.5972 61.0231 66.9039 60.7336 67.2283 60.4703C67.2736 60.4325 67.4172 60.562 67.5412 60.6295ZM43.4016 73.2682C43.3071 73.0316 43.1446 72.8117 43.1924 72.7159C43.3096 72.4848 43.5142 72.2989 43.703 72.1253C43.7535 72.0773 43.8989 72.1171 43.9651 72.1704C44.0037 72.2013 44.0037 72.3489 43.9751 72.4242C43.8981 72.62 43.8031 72.8091 43.696 72.9869C43.64 73.0804 43.5403 73.1415 43.4016 73.2682ZM52.5624 66.9958C52.6853 66.6541 52.7736 66.378 52.8852 66.1166C52.9127 66.0488 53.0322 65.9726 53.0852 65.9881C53.1412 66.0044 53.2008 66.1185 53.2032 66.1976C53.2049 66.4646 53.1803 66.7384 53.1656 67.0425C52.9849 67.029 52.8499 67.0183 52.5624 66.9958ZM58.7057 62.2368C58.607 62.5751 58.5154 62.9156 58.4021 63.2471C58.38 63.3112 58.2588 63.3856 58.2 63.375C58.1419 63.3658 58.0825 63.2662 58.0597 63.189C57.9004 62.6212 58.3339 62.4654 58.7036 62.2362L58.7057 62.2368ZM62.8628 64.1983C62.7377 64.9641 62.5095 65.0491 61.8387 65.2493C62.096 64.8749 62.3198 64.5286 62.5675 64.2024C62.6072 64.1499 62.7423 64.1945 62.8635 64.1959L62.8628 64.1983ZM49.5785 68.0002C49.7393 68.2523 49.8534 68.4333 50.0189 68.6958C49.747 68.7262 49.6106 68.7426 49.5125 68.7532C49.4309 68.9646 49.3674 69.1329 49.3015 69.3019C49.2459 69.2804 49.1926 69.2583 49.137 69.2369C49.2638 68.8819 49.3895 68.5266 49.5764 67.9997L49.5785 68.0002ZM65.2294 62.5095C65.1023 61.9863 65.5761 61.9273 65.725 61.6519C65.7666 61.5739 65.9676 61.6011 66.0968 61.5826C66.0958 61.6163 66.0951 61.6527 66.0931 61.6861C65.8173 61.9493 65.5429 62.2116 65.2294 62.5095ZM57.3805 63.2927C57.4504 63.2804 57.5187 63.2663 57.5872 63.255C57.5932 63.4201 57.6193 63.5884 57.5937 63.7481C57.5818 63.8231 57.4664 63.8887 57.3991 63.9566C57.3943 63.7344 57.3871 63.5128 57.3812 63.2903L57.3805 63.2927ZM56.227 64.2379C56.1843 64.2934 56.1426 64.3492 56.0998 64.4046C55.9655 64.4634 55.8321 64.5265 55.6946 64.566C55.684 64.5682 55.6087 64.345 55.6314 64.3241C55.7437 64.2158 55.8723 64.1122 56.0065 64.069C56.0673 64.0502 56.1519 64.1768 56.227 64.2379ZM79.6952 53.8624C79.5158 53.8937 79.3855 53.9157 79.1413 53.9569C79.3549 53.6494 79.497 53.4426 79.6912 53.1635C79.6932 53.441 79.6949 53.6245 79.6952 53.8624Z" fill="#E1299A"/>
<mask id="mask1_350_153" style="mask-type:luminance" maskUnits="userSpaceOnUse" x="75" y="58" width="37" height="69">
<path d="M75.3744 121.829L92.5859 126.851L111.138 63.2622L93.9269 58.2406L75.3744 121.829Z" fill="white"/>
</mask>
<g mask="url(#mask1_350_153)">
<path d="M98.4786 75.7982C98.1682 76.3962 97.877 77.0077 97.5449 77.589C97.2087 78.1768 96.8342 78.7366 96.4552 79.3421C96.2984 79.2088 96.2062 79.1309 96.0795 79.0234C95.881 79.3209 95.63 79.556 95.8241 79.9745C95.9276 80.1994 95.544 81.0557 95.2647 81.2931C95.2448 81.2363 95.2293 81.1834 95.2059 81.1348C95.159 81.0414 95.1136 80.9432 95.0507 80.8634C95.0385 80.8481 94.912 80.9105 94.9091 80.9319C94.9042 81.0546 94.9068 81.1821 94.9375 81.293C94.9797 81.4438 95.136 81.6357 95.0937 81.7162C94.9649 81.9608 94.7927 82.2137 94.5867 82.3627C94.1693 82.6642 93.7954 82.9719 93.632 83.5397C93.5856 83.6986 93.4715 83.8509 93.3658 83.9821C93.1413 84.2628 92.8657 84.5025 92.6893 84.8117C92.6135 84.9425 92.7317 85.2082 92.7595 85.4084C92.7077 85.5671 92.6168 85.7496 92.5876 85.9371C92.5041 86.4315 92.2008 86.7741 91.77 86.8183C91.4861 86.8478 91.0354 87.3997 90.9584 87.8607C91.1059 87.7757 91.2277 87.6766 91.3574 87.6413C91.4332 87.6203 91.5231 87.6949 91.6065 87.7271C91.5618 87.8159 91.5175 87.9755 91.4704 87.9813C91.2819 88.0061 91.1174 88.3579 90.8902 88.1021C90.8693 88.079 90.5573 88.3186 90.4594 88.4912C90.0335 89.2385 89.6442 90.0082 89.2282 90.7597C89.0195 91.1339 89.0203 91.3928 89.2782 91.7555C89.1133 92.2183 88.9505 92.6738 88.7857 93.1288C88.5948 93.6545 88.4661 93.766 87.8421 93.9001C88.1762 94.2707 88.0152 94.6483 87.7823 95.056C87.4545 94.9329 87.364 95.16 87.3294 95.5171C87.2491 96.3913 86.8945 97.1633 86.4622 97.906C86.2101 98.3382 85.9972 98.7987 85.7367 99.2218C85.5705 99.4921 85.3481 99.72 85.1043 100.025C85.305 101.22 84.7661 102.196 83.8005 103.024C84.4822 103.442 83.8234 103.931 83.7221 104.369C83.6176 104.818 83.3631 105.247 83.1242 105.649C83.071 105.74 82.8198 105.692 82.6208 105.711C82.6234 105.717 82.6336 105.871 82.7044 105.955C82.9005 106.184 82.8383 106.284 82.5802 106.395C82.411 106.468 82.2629 106.627 82.0486 106.793C82.2297 106.869 82.3491 106.919 82.4105 106.947C82.087 107.4 81.7596 107.844 81.4487 108.304C81.3838 108.401 81.324 108.572 81.3494 108.667C81.4365 108.974 81.3195 109.186 81.1417 109.42C80.7864 109.891 80.7118 110.507 80.4831 111.022C80.227 111.596 80.2085 112.365 79.5974 112.739C79.4995 112.798 79.3853 112.924 79.3628 113.035C79.2373 113.636 78.8934 114.087 78.5853 114.579C78.3673 114.924 78.2436 115.348 78.0954 115.742C77.9851 116.037 77.9947 116.379 77.578 116.443C77.4519 116.463 77.3379 116.872 77.2193 117.104C77.0249 117.479 76.8218 117.846 76.6372 118.224C76.4673 118.572 76.2281 118.929 76.6206 119.312C76.3826 119.434 76.2061 119.524 76.0299 119.616C76.0225 119.645 76.0178 119.677 76.0114 119.706C76.1196 119.71 76.231 119.7 76.3353 119.725C76.5721 119.785 76.9902 119.644 76.7911 120.236C76.7788 120.278 76.8912 120.427 76.9246 120.418C77.4476 120.232 77.4868 120.761 77.6984 121.048C77.7616 121.134 77.8882 121.212 77.9847 121.199C78.3542 121.153 78.7298 121.112 79.0891 120.983C79.2893 120.911 79.4552 120.672 79.6361 120.51C79.9156 121.125 79.8299 121.343 79.2563 121.748C78.8187 122.058 78.9684 122.481 79.0952 122.921C79.2113 122.808 79.3034 122.716 79.3969 122.623C79.3988 122.673 79.3997 122.719 79.401 122.768C79.7929 122.732 80.1847 122.7 80.5764 122.653C80.6425 122.646 80.7547 122.591 80.766 122.541C80.9053 121.927 81.5031 121.826 81.7701 121.335C82.02 120.873 82.4095 120.504 82.6696 120.048C83.1128 119.272 83.4909 118.453 83.9168 117.664C84.2423 117.064 84.6137 116.496 84.9372 115.895C85.2824 115.253 85.5924 114.593 85.9194 113.938C85.9991 113.778 86.0809 113.623 86.164 113.467C86.3548 113.109 86.5592 112.761 86.7361 112.393C87.0622 111.722 87.3924 111.049 87.6836 110.358C87.9456 109.737 88.137 109.08 88.4038 108.462C88.5689 108.081 88.8242 107.748 89.0233 107.384C89.1146 107.219 89.2103 107.031 89.2283 106.848C89.2766 106.364 89.3564 105.932 89.7045 105.542C89.8974 105.324 89.9574 104.944 90.1205 104.525C90.1799 104.428 90.357 104.234 90.4193 104.009C90.6021 103.333 90.8768 102.736 91.2435 102.135C91.662 101.447 91.8955 100.62 92.2166 99.8567C92.3436 99.558 92.4821 99.2652 92.6331 98.9787C92.9528 98.3794 93.2505 97.7607 93.6137 97.1977C94.0053 96.5907 94.2742 95.957 94.5034 95.2622C94.6547 94.8006 95.0971 94.4476 95.3676 94.013C95.6125 93.6206 95.8031 93.1836 96.0131 92.7666C96.1015 92.5925 96.1703 92.4061 96.2692 92.2377C96.7049 91.4907 97.1467 90.7494 97.5879 90.0066C97.6051 89.9776 97.6361 89.9475 97.6352 89.9237C97.5592 88.8013 98.57 88.243 98.8334 87.2759C98.9566 86.8271 99.3196 86.4469 99.5617 86.0263C99.7395 85.7201 99.8986 85.402 100.062 85.0866C100.085 85.0423 100.088 84.983 100.115 84.949C100.769 84.1299 100.969 83.0382 101.53 82.1606C101.571 82.0943 101.617 82.003 101.673 81.979C102.063 81.8171 102.074 81.4192 102.196 81.0654C102.354 80.6123 102.567 80.1713 102.802 79.7579C103.241 78.9883 103.731 78.2532 104.159 77.4776C104.321 77.1826 104.356 76.8493 104.627 76.5561C104.917 76.2447 105.017 75.7067 105.238 75.2918C105.399 74.9938 105.629 74.7392 105.818 74.4562C106.067 74.0831 106.33 73.7171 106.544 73.3209C106.959 72.5535 107.334 71.7598 107.746 70.993C107.873 70.7568 108.068 70.5628 108.241 70.3625C108.916 69.5846 109.197 68.5771 109.609 67.6413C109.701 67.4293 109.819 67.2322 109.916 67.0229C109.971 66.9069 110.068 66.7574 110.046 66.6637C109.877 65.953 110.1 65.327 110.393 64.6638C110.574 64.2515 110.575 63.746 110.638 63.2796C110.647 63.2221 110.531 63.0878 110.491 63.1009C110.365 63.1398 110.166 63.2073 110.137 63.3084C110.038 63.6299 109.881 63.8088 109.598 63.9051C109.502 63.9385 109.429 64.1237 109.356 64.2487C109.243 64.4392 109.138 64.6371 109.017 64.8529C108.898 64.7384 108.8 64.5806 108.748 64.6045C108.32 64.7957 108.101 64.5228 107.848 64.2347C107.621 63.9765 107.357 63.9765 107.053 64.2852C106.863 64.4804 106.578 64.5476 106.337 64.681C106.253 64.7273 106.174 64.7877 106.103 64.8547C106.036 64.9172 105.99 65.0163 105.921 65.0707C105.405 65.4923 104.852 65.8616 104.376 66.3327C103.881 66.821 103.451 67.4035 103.002 67.9532C102.659 68.3745 102.332 68.8123 101.996 69.2447C101.715 69.6072 101.424 69.9624 101.156 70.3389C100.909 70.6862 100.662 71.0416 100.462 71.4221C100.397 71.5457 100.462 71.7647 100.487 71.9351C100.508 72.0746 100.557 72.2091 100.594 72.3452C100.452 72.3653 100.296 72.4323 100.169 72.3951C99.7962 72.2863 99.7308 72.7076 99.5473 72.897C99.4149 73.0361 99.355 73.2682 99.2606 73.4628C99.6997 73.8901 99.6764 73.8716 99.2291 74.427C98.9864 74.7286 98.8475 75.1402 98.655 75.4969C98.5964 75.6066 98.5207 75.7034 98.452 75.8061L98.4609 75.7983L98.4786 75.7982Z" fill="#E1299A"/>
</g>
</svg>
