<svg width="122" height="127" viewBox="0 0 122 127" fill="none" xmlns="http://www.w3.org/2000/svg">
<mask id="mask0_350_152" style="mask-type:luminance" maskUnits="userSpaceOnUse" x="41" y="94" width="57" height="33">
<path d="M97.676 109.405L46.557 94.4904L41.4672 111.936L92.5862 126.85L97.676 109.405Z" fill="white"/>
</mask>
<g mask="url(#mask0_350_152)">
<path d="M93.3313 115.903C93.3228 115.564 93.3577 115.324 93.7366 115.287C94.1326 115.248 94.2198 115.013 94.046 114.586C93.9707 114.401 93.9097 114.208 93.8262 114.028C93.7484 113.859 93.6501 113.704 93.5281 113.485C93.8491 113.112 94.284 112.918 94.7501 112.802C94.804 112.787 94.8676 112.843 94.9144 112.822C95.4729 112.587 96.0463 112.387 96.5799 112.085C97.0453 111.824 97.1036 111.393 96.8547 110.904C96.7754 110.748 96.7575 110.548 96.691 110.287C96.6356 110.428 96.6123 110.523 96.5623 110.596C96.5229 110.655 96.4444 110.719 96.392 110.713C96.341 110.706 96.2747 110.623 96.2684 110.561C96.1951 109.963 96.1999 109.962 95.9406 109.604C96.0346 109.604 96.1318 109.623 96.225 109.6C96.3761 109.563 96.5234 109.501 96.6717 109.452C96.5804 109.34 96.5098 109.161 96.3947 109.124C95.3406 108.781 94.2798 108.453 93.2152 108.147C92.4466 107.928 91.6679 107.74 90.8888 107.561C90.7386 107.526 90.5542 107.582 90.3966 107.648C90.0692 107.789 89.9723 108.004 90.3229 108.31C90.1594 108.397 90.0462 108.455 89.8635 108.551C89.8806 108.167 89.8944 107.881 89.9083 107.579C89.5079 107.462 89.0141 107.287 88.5029 107.186C88.3272 107.152 88.1102 107.312 87.9124 107.383C87.8933 107.434 87.8744 107.483 87.8563 107.534C87.7261 107.351 87.5998 107.163 87.4621 106.987C87.4204 106.933 87.3425 106.881 87.2846 106.891C86.8897 106.956 86.5172 106.918 86.1535 106.777C85.9458 106.697 85.7052 106.605 85.4974 106.662C84.9062 106.82 84.4218 106.464 83.8686 106.455C83.04 106.441 82.2151 106.393 81.3866 106.36C81.1038 106.348 80.8231 106.325 80.5405 106.328C79.7093 106.335 78.8759 106.357 78.0416 106.367C77.5601 106.373 77.0798 106.363 76.5989 106.374C76.461 106.377 76.3167 106.44 76.176 106.448C75.9191 106.465 75.6587 106.467 75.4009 106.468C75.2878 106.469 75.1758 106.436 75.0636 106.449C74.2702 106.539 73.4786 106.649 72.6852 106.723C72.2054 106.769 71.7252 106.748 71.2441 106.783C70.2424 106.855 69.2388 106.949 68.2368 107.022C66.9581 107.116 65.682 107.189 64.4036 107.285C63.7661 107.333 63.1254 107.433 62.488 107.474C62.0151 107.503 61.5428 107.436 61.0701 107.483C60.5085 107.54 59.9468 107.673 59.3241 107.784C59.2016 107.738 58.998 107.591 58.7841 107.596C57.9102 107.617 57.0326 107.711 56.1601 107.727C55.1058 107.745 54.0546 107.604 53.0051 107.73C51.685 107.89 50.4022 107.569 49.0835 107.83C48.8598 107.873 48.6351 107.9 48.4367 107.933C48.3709 108.094 48.3187 108.363 48.2467 108.379C48.0185 108.426 47.6415 108.479 47.5769 108.348C47.2795 107.731 46.8895 108.082 46.5021 108.224C46.3057 108.299 46.102 108.341 45.902 108.398C45.375 108.541 44.8486 108.689 44.3196 108.823C43.8545 108.944 43.3596 108.848 42.9318 109.242C42.7035 109.452 42.4372 109.611 42.2271 109.838C42.1256 109.947 42.0454 110.2 42.0837 110.33C42.1161 110.446 42.32 110.562 42.4465 110.545C42.8146 110.496 42.9203 110.634 42.8766 111.06C42.8382 111.43 43.2044 111.721 43.5641 111.659C43.9737 111.589 44.245 111.785 44.515 112.087C44.4293 112.157 44.4062 112.187 44.3796 112.191C44.2345 112.23 44.0892 112.262 43.9449 112.298C44.048 112.411 44.132 112.574 44.2582 112.63C44.5105 112.743 44.7875 112.797 45.1471 112.902C44.9252 112.254 45.2488 111.97 45.6396 111.673C45.7764 112.064 46.0052 112.098 46.3684 111.998C46.7729 111.885 47.2008 111.941 47.6192 111.939C47.6788 111.94 47.734 112.012 47.8399 112.085C47.289 112.242 46.8645 112.075 46.5314 112.508C46.4993 112.55 46.3005 112.511 46.2555 112.442C46.0163 112.075 45.7335 112.408 45.474 112.445C45.4682 112.446 45.4241 112.696 45.4693 112.746C45.7231 113.031 46.0051 113.255 46.2581 113.016C46.6785 113.076 46.9843 113.1 47.2807 113.164C47.4954 113.213 47.6917 113.343 47.9055 113.383C49.3261 113.649 50.7501 113.902 52.1727 114.16C52.7349 114.264 53.2916 114.388 53.8534 114.493C54.8871 114.686 55.9173 114.891 56.9595 115.051C57.7058 115.165 58.4661 115.211 59.2209 115.288C59.6832 115.332 60.1486 115.374 60.6103 115.421C61.5611 115.516 62.5076 115.636 63.4624 115.706C64.3712 115.774 65.286 115.787 66.1998 115.83C66.8454 115.861 67.4861 115.912 68.1332 115.929C68.396 115.938 68.6644 115.886 68.9316 115.86C68.9861 115.855 69.0563 115.812 69.0973 115.834C69.7713 116.196 70.5227 116.011 71.2457 116.038C72.1072 116.067 72.9665 116.119 73.8305 116.132C74.8501 116.15 75.8696 116.146 76.8901 116.138C77.0695 116.136 77.2605 116.024 77.434 116.043C77.7116 116.073 77.9728 116.22 78.2512 116.228C78.6836 116.239 79.1273 116.15 79.5614 116.155C80.0694 116.157 80.5735 116.214 81.0798 116.248C81.6587 116.288 82.2397 116.304 82.8149 116.371C83.9414 116.508 85.0621 116.679 86.1881 116.825C86.3809 116.85 86.5819 116.809 86.7755 116.824C87.0507 116.847 87.3216 116.896 87.5937 116.929C87.9839 116.975 88.3736 117.03 88.7642 117.059C89.2753 117.096 89.7891 117.135 90.3049 117.136C90.6896 117.136 91.08 117.083 91.4671 117.052C91.4817 117.051 91.5006 117.036 91.5084 117.039C91.975 117.475 92.546 117.211 93.0839 117.217C93.5248 117.221 93.947 117.415 94.388 117.442C94.6555 117.457 94.9531 117.347 95.218 117.227C95.4621 117.117 95.3916 116.927 95.2535 116.768C95.0765 116.563 94.9103 116.341 94.73 116.141C94.6777 116.081 94.5916 116.039 94.5137 116.029C94.1271 115.979 93.7368 115.945 93.3313 115.903ZM81.5859 114.794C81.3975 114.815 81.2278 114.858 81.0645 114.849C80.5904 114.822 80.1189 114.775 79.6474 114.735C79.5344 114.724 79.4193 114.725 79.3134 114.694C78.9741 114.595 78.6482 114.378 78.2869 114.764C78.2305 114.825 78.0647 114.787 77.9611 114.751C77.7032 114.662 77.5818 114.57 77.8607 114.216C78.1383 113.864 78.4102 113.917 78.7018 113.941C79.4241 114.004 80.1456 114.085 80.8681 114.154C80.9079 114.158 80.9518 114.133 80.9951 114.121C81.5902 113.976 81.5993 113.986 81.5822 114.795L81.5859 114.794ZM77.5324 114.573C77.1545 114.64 76.8375 114.711 76.5196 114.744C76.4637 114.75 76.3655 114.616 76.3617 114.538C76.3493 114.289 76.8406 113.84 77.1418 113.782C77.5231 113.706 77.4276 114.026 77.4452 114.265C77.4514 114.343 77.4841 114.412 77.5296 114.575L77.5324 114.573ZM82.0245 114.871C81.9785 114.873 81.9322 114.876 81.8886 114.878C81.8622 114.707 81.7798 114.52 81.826 114.373C81.8569 114.274 82.0836 114.168 82.2002 114.185C82.4848 114.225 82.7552 114.333 83.1291 114.442C82.925 114.619 82.7724 114.812 82.5927 114.878C82.5073 114.91 82.3727 114.693 82.243 114.573C82.1892 114.647 82.1069 114.759 82.0265 114.871L82.0245 114.871ZM46.1655 110.973C46.1596 111.028 46.1513 111.083 46.1463 111.137C45.747 111.131 45.347 111.126 44.8979 111.119C45.2632 110.671 45.7525 110.638 46.1655 110.973ZM92.9934 116.038C92.7238 115.996 92.5305 115.98 92.3457 115.931C92.2686 115.911 92.2101 115.824 92.1426 115.767C92.2115 115.671 92.2918 115.487 92.3527 115.49C92.6216 115.501 92.8853 115.563 93.1814 115.613C93.0973 115.803 93.034 115.948 92.9934 116.038ZM48.4392 112.085C48.7391 112.243 48.9627 112.363 49.2003 112.488C48.7143 112.919 48.5127 112.84 48.4392 112.085ZM86.9441 108.327C86.8735 108.265 86.8019 108.2 86.7317 108.138C86.8388 107.96 86.948 107.783 87.0551 107.605C87.1562 107.683 87.259 107.763 87.3591 107.84C87.2208 108.004 87.0818 108.165 86.9434 108.329L86.9441 108.327ZM81.2364 112.278C81.5639 111.789 81.8307 111.768 82.2803 112.247C81.8835 112.258 81.5967 112.267 81.2364 112.278ZM77.7676 111.883C77.9835 111.814 78.1673 111.741 78.3536 111.701C78.4211 111.686 78.5034 111.737 78.5619 111.783C78.5805 111.799 78.5617 111.912 78.5307 111.954C78.3697 112.18 77.9002 112.133 77.7656 111.883L77.7676 111.883ZM85.6052 112.237C85.6002 112.304 85.5952 112.37 85.5898 112.438C85.3348 112.63 85.0786 112.838 84.8353 112.213C85.1508 112.222 85.3775 112.23 85.6052 112.237ZM75.9245 114.321C75.942 114.416 75.9602 114.509 75.9801 114.603C75.8376 114.626 75.6766 114.7 75.5602 114.652C75.4727 114.615 75.4016 114.423 75.4102 114.299C75.4152 114.228 75.6002 114.102 75.6949 114.099C75.7756 114.099 75.8489 114.242 75.9245 114.321ZM83.9075 114.37C83.6668 114.55 83.4608 114.707 83.2537 114.86L83.1683 114.667C83.3752 114.531 83.5804 114.396 83.7886 114.262C83.7941 114.258 83.8078 114.279 83.9075 114.37ZM79.7409 112.327C79.9475 111.8 80.2037 111.677 80.5542 111.885C80.2904 112.027 80.0416 112.164 79.7409 112.327ZM43.5125 110.961C43.8372 111.019 44.1203 111.071 44.4698 111.136C43.9946 111.495 43.7286 111.357 43.5125 110.961Z" fill="#E1299A"/>
</g>
<path d="M52.1531 72.2706C52.413 72.9788 52.7208 72.5943 53.0569 72.367C53.9209 71.7815 54.8119 71.251 55.6692 70.6544C56.2866 70.2244 56.874 69.7268 57.4687 69.2457C58.2151 68.6429 58.9123 67.9656 59.7422 67.5048C60.1518 67.2793 60.5108 66.8784 60.8509 66.5047C61.0659 66.2682 61.2673 65.9454 61.0226 65.5487C60.952 65.6352 60.9057 65.7106 60.8453 65.7622C60.7695 65.825 60.6836 65.877 60.5978 65.9134C60.5814 65.9204 60.5041 65.8103 60.5159 65.785C60.5593 65.6853 60.6131 65.5768 60.6866 65.5107C60.9289 65.2901 61.1814 65.0841 61.4335 64.8793C61.4884 64.8352 61.5916 64.7844 61.6207 64.8098C61.6758 64.8559 61.7164 64.9554 61.7167 65.0378C61.7195 65.2137 61.6921 65.3912 61.6762 65.5708C61.321 65.6135 61.2526 65.7608 61.4435 66.1863C61.8696 65.98 61.9316 65.563 61.9685 65.1334C61.9845 64.946 61.9977 64.7604 62.0123 64.5739C62.1985 64.5799 62.3837 64.5856 62.5896 64.5921C62.4339 64.9138 62.3125 65.1632 62.1466 65.5042C62.5191 65.4326 62.8074 65.4827 62.9689 65.0921C62.9891 65.0418 63.0474 64.9974 63.0952 64.9735C63.4387 64.7928 63.7835 64.619 64.1256 64.4392C64.5632 64.2088 65.0312 64.037 65.4241 63.7283C65.8168 63.4169 66.3767 63.2902 66.5049 62.5815C66.5355 62.4049 66.8239 62.1363 66.9823 62.1315C67.5473 62.1121 67.9892 61.8177 68.4707 61.4708C68.8586 61.1907 69.3259 61.0709 69.631 60.6125C70.5306 60.53 71.1758 59.7017 71.984 59.3377C72.3771 59.1611 72.7662 58.9492 73.1388 58.7065C73.3539 58.568 73.7342 58.4163 73.3594 58.0339C73.3273 58.0036 73.3734 57.8759 73.384 57.7902C73.4522 57.8179 73.5618 57.8212 73.5801 57.8722C73.7461 58.3754 74.03 58.2322 74.3298 57.9891C74.9345 57.4965 75.5238 56.9772 76.1399 56.5102C76.721 56.0682 77.3359 55.6884 77.926 55.2648C78.119 55.1264 78.2838 54.9366 78.462 54.7691C78.5272 54.7085 78.584 54.6048 78.6547 54.5823C79.3376 54.3635 79.9487 53.9969 80.4278 53.3475C80.4695 53.2917 80.5579 53.2351 80.6136 53.241C80.9623 53.2774 81.1404 53.1255 81.0695 52.6449C81.3067 52.6122 81.5149 52.5997 81.7207 52.55C81.8217 52.5259 81.9248 52.4489 82.0103 52.3719C82.0295 52.3553 81.9981 52.1828 81.9611 52.1694C81.8633 52.1369 81.7494 52.152 81.5912 52.1451C81.5082 51.9863 81.3913 51.7653 81.227 51.4495C81.6177 51.4707 81.8943 51.4887 82.1914 51.5049C82.1919 51.5978 82.1769 51.6835 82.1964 51.7493C82.2238 51.841 82.2783 51.9196 82.3197 52.0048C82.3819 51.9054 82.5013 51.7991 82.4984 51.7107C82.4585 50.7335 83.0373 50.0949 83.5453 49.4108C83.6435 49.2787 83.7296 49.1392 83.8167 48.996C84.0409 48.629 84.2794 48.27 84.4821 47.8862C84.7069 47.4605 84.8237 46.9275 85.1168 46.5975C85.4755 46.1939 85.5485 45.6821 85.8053 45.2605C85.9567 45.0106 86.2329 44.8482 86.3633 44.5909C86.4697 44.3816 86.5276 44.0391 86.4537 43.849C86.3469 43.5748 86.2177 43.2066 85.7645 43.4415C85.4829 43.588 85.245 43.6911 85.0173 43.9866C84.7834 44.2881 84.3983 44.441 84.076 44.6514C84.0322 44.6804 83.9433 44.678 83.9109 44.645C83.4252 44.097 82.9152 44.6172 82.4073 44.729C82.0316 44.8115 81.6119 44.8745 81.2704 44.7644C80.6446 44.5675 79.768 45.1584 79.6801 45.9259C79.669 46.0207 79.6042 46.1102 79.5541 46.225C79.1472 45.7025 79.0669 45.6934 78.5398 46.0754C78.4781 46.1201 78.4078 46.2093 78.3517 46.2047C77.5671 46.1391 77.4337 47.0057 77.025 47.4744C76.9789 47.5263 76.9763 47.6262 76.8604 47.7204C76.8292 47.5127 76.7974 47.3035 76.7533 47.011C76.6752 47.2221 76.6271 47.3492 76.6033 47.4193C76.3078 47.4089 76.0417 47.3966 75.7854 47.3884C75.776 47.7503 75.7722 47.983 75.7657 48.2137C75.7168 48.2295 75.6673 48.2438 75.6158 48.2575C75.5349 48.0915 75.4533 47.924 75.331 47.6688C75.1451 47.8171 74.9634 47.9966 74.7576 48.1221C74.4084 48.3338 74.0416 48.5038 73.6873 48.7101C73.2865 48.9434 72.8956 49.1311 72.7365 49.7485C72.5877 50.3153 72.4403 49.6725 72.2931 49.7942C71.9296 49.9678 71.5471 50.1005 71.21 50.3275C70.9795 50.4811 70.8111 50.7703 70.6085 50.9909C70.5274 51.0796 70.3956 51.2358 70.3447 51.2131C69.7728 50.9718 69.4507 51.5416 69.0412 51.8311C68.9579 51.8891 68.8659 51.9354 68.7763 51.9772C68.2864 52.2014 67.7975 52.426 67.3076 52.6463C67.0662 52.7536 66.8035 52.8128 66.5792 52.9564C65.8281 53.4429 65.0552 53.8981 64.3629 54.4827C63.8465 54.9187 63.2869 55.1997 62.7425 55.5426C62.6216 55.6197 62.5381 55.7848 62.4184 55.8766C61.9546 56.2273 61.522 56.778 61.0783 56.9686C60.6442 57.1569 60.2048 57.3593 59.7954 57.607C59.2042 57.9624 58.6442 58.4 58.077 58.8134C57.5797 59.1765 57.0846 59.5508 56.6017 59.9404C56.3483 60.1461 56.1263 60.4067 55.8815 60.628C55.7233 60.7687 55.5473 60.8832 55.3756 61.0056C55.3139 61.0503 55.2089 61.0615 55.1829 61.1166C54.9168 61.6989 54.4025 61.9499 53.9928 62.3387C53.7534 62.5681 53.4619 62.7221 53.2044 62.9266C52.6348 63.3784 52.0782 63.8537 51.5039 64.2989C50.3491 65.1955 49.1745 66.0575 48.029 66.9711C47.0263 67.7709 46.049 68.612 45.0741 69.4565C44.8208 69.6766 44.6233 69.9861 44.3941 70.2486C44.3384 70.3146 44.259 70.3594 44.1854 70.3993C44.079 70.4532 43.957 70.466 43.8631 70.5379C43.3264 70.9601 42.8008 71.4013 42.2635 71.826C42.1215 71.9374 41.9497 71.9997 41.8057 72.1105C41.458 72.3815 41.1173 72.6662 40.7756 72.9507C40.7417 72.98 40.7229 73.0594 40.6946 73.0655C39.8692 73.2272 39.3106 73.9592 38.7097 74.53C38.1032 75.1082 37.5912 75.8513 37.1144 76.5837C36.7947 77.0732 36.982 77.4467 37.4911 77.5586C38.2068 77.7125 38.3293 77.9861 38.0414 78.7945C37.9855 78.952 37.9045 79.1008 37.8609 79.258C37.8156 79.4133 37.7694 79.5867 37.7878 79.7358C37.8511 80.2311 38.7184 80.7978 39.14 80.5993C40.4554 79.9783 41.7605 79.3321 43.0717 78.6955C43.547 78.4644 44.032 78.261 44.4937 77.9971C44.8151 77.8126 45.1038 77.5467 45.5251 77.2319C45.9973 77.3187 47.2981 76.5013 47.4016 75.9762C47.6118 75.9265 47.8187 75.9372 47.9702 75.8311C48.6023 75.3923 49.2083 74.9027 49.8398 74.4663C50.3033 74.1468 50.8117 73.9202 51.2601 73.5767C51.5351 73.3655 51.7425 73.0223 51.9679 72.7235C52.0385 72.6291 52.0652 72.4958 52.1516 72.2832L52.1531 72.2706ZM58.3106 60.1346C58.6676 60.7183 58.658 60.8004 58.1348 61.1312C57.9961 61.2201 57.8144 61.2063 57.6593 61.2682C57.5469 61.3124 57.4358 61.3898 57.3441 61.4806C56.9779 61.8455 56.6478 62.2797 56.2464 62.5755C55.9218 62.8165 55.62 63.0251 55.4013 63.4147C55.1272 63.9031 54.8058 64.0119 54.3951 63.7901C54.2554 64.0342 54.1449 64.3221 53.964 64.5254C53.7015 64.8186 53.3983 65.0698 53.0905 65.2988C53.0226 65.3496 52.8684 65.2301 52.753 65.186C52.8117 65.0646 52.8447 64.9135 52.9292 64.8285C53.2717 64.4881 53.6243 64.1663 53.9803 63.8442C54.1114 63.7243 54.2898 63.6549 54.3908 63.5132C54.6519 63.149 54.8442 62.6942 55.3524 62.7941C55.4207 62.8062 55.5426 62.6497 55.6181 62.5502C55.7545 62.3744 55.8761 62.1813 56.0048 61.9941C56.2608 61.6167 56.5394 61.3478 56.8384 61.5997C57.0301 61.3028 57.2048 61.0336 57.3878 60.7512C58.0585 61.2866 57.9982 60.3792 58.3079 60.1364L58.3106 60.1346ZM58.5008 62.6086C58.4628 63.1254 57.3512 64.2188 56.9817 64.1136C57.3891 63.4785 57.8546 62.9819 58.5008 62.6086ZM54.1734 66.2211C54.2703 66.086 54.2985 66.0237 54.3455 65.9838C54.631 65.7365 54.9175 65.4896 55.2121 65.2567C55.2567 65.2214 55.3802 65.23 55.3982 65.2666C55.4327 65.338 55.4537 65.4931 55.416 65.5279C55.1174 65.8275 54.8107 66.117 54.4863 66.3803C54.441 66.4181 54.2974 66.2886 54.1734 66.2211ZM78.313 53.5824C78.4075 53.819 78.57 54.0389 78.5222 54.1347C78.405 54.3657 78.2004 54.5517 78.0116 54.7253C77.9611 54.7732 77.8157 54.7334 77.7495 54.6801C77.7109 54.6493 77.7109 54.5016 77.7395 54.4264C77.8165 54.2306 77.9115 54.0414 78.0186 53.8636C78.0746 53.7702 78.1743 53.7091 78.313 53.5824ZM69.1522 59.8548C69.0293 60.1965 68.941 60.4726 68.8294 60.734C68.8019 60.8018 68.6824 60.878 68.6294 60.8625C68.5734 60.8462 68.5138 60.7321 68.5114 60.653C68.5097 60.386 68.5343 60.1122 68.549 59.8081C68.7297 59.8216 68.8647 59.8323 69.1522 59.8548ZM63.0089 64.6138C63.1076 64.2754 63.1992 63.935 63.3125 63.6035C63.3346 63.5394 63.4558 63.465 63.5146 63.4756C63.5727 63.4847 63.6321 63.5844 63.6549 63.6616C63.8142 64.2294 63.3807 64.3852 63.011 64.6144L63.0089 64.6138ZM58.8518 62.6522C58.9769 61.8865 59.2051 61.8015 59.8759 61.6013C59.6186 61.9757 59.3948 62.322 59.1471 62.6482C59.1074 62.7007 58.9723 62.656 58.8511 62.6547L58.8518 62.6522ZM72.1361 58.8503C71.9753 58.5983 71.8612 58.4173 71.6957 58.1548C71.9676 58.1244 72.104 58.1079 72.2021 58.0974C72.2837 57.886 72.3472 57.7177 72.4131 57.5487C72.4687 57.5702 72.522 57.5923 72.5776 57.6137C72.4508 57.9687 72.3251 58.324 72.1382 58.8509L72.1361 58.8503ZM56.4852 64.3411C56.6123 64.8643 56.1385 64.9233 55.9896 65.1987C55.948 65.2767 55.7471 65.2495 55.6178 65.2679C55.6188 65.2343 55.6195 65.1979 55.6215 65.1645C55.8973 64.9013 56.1717 64.639 56.4852 64.3411ZM64.3341 63.5579C64.2642 63.5702 64.1959 63.5843 64.1274 63.5956C64.1214 63.4305 64.0953 63.2622 64.1209 63.1024C64.1328 63.0275 64.2482 62.9619 64.3155 62.894C64.3203 63.1162 64.3275 63.3378 64.3334 63.5603L64.3341 63.5579ZM65.4876 62.6127C65.5303 62.5572 65.572 62.5014 65.6148 62.4459C65.7491 62.3871 65.8825 62.3241 66.02 62.2846C66.0306 62.2824 66.1059 62.5056 66.0832 62.5264C65.9709 62.6348 65.8423 62.7384 65.7081 62.7815C65.6473 62.8004 65.5627 62.6738 65.4876 62.6127ZM42.0195 72.9882C42.1988 72.9569 42.3291 72.9348 42.5733 72.8937C42.3597 73.2012 42.2176 73.408 42.0234 73.6871C42.0215 73.4095 42.0197 73.2261 42.0195 72.9882Z" fill="#E1299A"/>
<mask id="mask1_350_152" style="mask-type:luminance" maskUnits="userSpaceOnUse" x="10" y="0" width="37" height="69">
<path d="M46.3401 5.02148L29.1286 -0.00012184L10.5761 63.5884L27.7876 68.61L46.3401 5.02148Z" fill="white"/>
</mask>
<g mask="url(#mask1_350_152)">
<path d="M23.236 51.0528C23.5464 50.4548 23.8376 49.8433 24.1697 49.2621C24.5059 48.6742 24.8804 48.1145 25.2594 47.509C25.4162 47.6423 25.5084 47.7202 25.6351 47.8277C25.8336 47.5302 26.0846 47.2951 25.8905 46.8765C25.787 46.6516 26.1706 45.7954 26.4499 45.558C26.4698 45.6148 26.4853 45.6677 26.5087 45.7163C26.5556 45.8097 26.601 45.9079 26.6639 45.9876C26.6761 46.0029 26.8026 45.9405 26.8055 45.9192C26.8104 45.7965 26.8078 45.669 26.7771 45.5581C26.7349 45.4073 26.5786 45.2153 26.6209 45.1349C26.7497 44.8903 26.9219 44.6374 27.1279 44.4884C27.5453 44.1869 27.9192 43.8791 28.0826 43.3114C28.129 43.1524 28.2431 43.0002 28.3488 42.869C28.5733 42.5883 28.8489 42.3485 29.0253 42.0394C29.1011 41.9086 28.9829 41.6429 28.9551 41.4427C29.0069 41.284 29.0978 41.1015 29.127 40.914C29.2105 40.4196 29.5138 40.077 29.9446 40.0328C30.2285 40.0032 30.6792 39.4514 30.7562 38.9904C30.6087 39.0754 30.4869 39.1744 30.3572 39.2098C30.2814 39.2308 30.1915 39.1562 30.1081 39.124C30.1528 39.0351 30.1971 38.8756 30.2442 38.8697C30.4327 38.845 30.5972 38.4932 30.8244 38.7489C30.8453 38.772 31.1573 38.5325 31.2552 38.3598C31.6811 37.6126 32.0704 36.8429 32.4864 36.0914C32.6951 35.7172 32.6943 35.4583 32.4364 35.0956C32.6013 34.6328 32.7641 34.1772 32.9289 33.7223C33.1198 33.1965 33.2485 33.0851 33.8725 32.951C33.5384 32.5804 33.6994 32.2027 33.9323 31.7951C34.2601 31.9181 34.3506 31.6911 34.3852 31.334C34.4655 30.4598 34.8201 29.6878 35.2524 28.945C35.5045 28.5129 35.7174 28.0524 35.9779 27.6293C36.1441 27.3589 36.3665 27.1311 36.6103 26.8259C36.4096 25.6306 36.9485 24.655 37.9141 23.8274C37.2324 23.409 37.8912 22.9205 37.9925 22.4823C38.097 22.0332 38.3515 21.6044 38.5904 21.2024C38.6436 21.1108 38.8948 21.1593 39.0938 21.1403C39.0912 21.1343 39.081 20.9797 39.0102 20.8964C38.8141 20.6667 38.8763 20.5672 39.1344 20.4557C39.3036 20.3835 39.4517 20.2242 39.666 20.0581C39.4849 19.9817 39.3655 19.9325 39.3041 19.9041C39.6276 19.451 39.955 19.0069 40.2659 18.5476C40.3308 18.4502 40.3906 18.2795 40.3652 18.1845C40.2781 17.8769 40.3951 17.6654 40.5729 17.4311C40.9282 16.9598 41.0028 16.344 41.2315 15.8293C41.4876 15.2546 41.5061 14.4865 42.1172 14.1121C42.2151 14.0531 42.3293 13.927 42.3518 13.816C42.4773 13.215 42.8212 12.7639 43.1293 12.2723C43.3473 11.927 43.471 11.5031 43.6192 11.1086C43.7295 10.8142 43.7199 10.4717 44.1366 10.4077C44.2627 10.3883 44.3767 9.97862 44.4953 9.74665C44.6897 9.37218 44.8928 9.00549 45.0774 8.62684C45.2473 8.27922 45.4865 7.92174 45.094 7.53935C45.332 7.41674 45.5085 7.32712 45.6847 7.23479C45.6921 7.20559 45.6968 7.1743 45.7032 7.14481C45.595 7.14067 45.4836 7.15128 45.3793 7.12607C45.1425 7.06613 44.7244 7.2068 44.9235 6.61549C44.9358 6.57334 44.8234 6.42426 44.79 6.4328C44.267 6.61864 44.2278 6.08979 44.0162 5.80331C43.953 5.71692 43.8264 5.63946 43.7299 5.65182C43.3604 5.6982 42.9848 5.73888 42.6255 5.86792C42.4253 5.94018 42.2594 6.17923 42.0785 6.34074C41.799 5.7261 41.8847 5.50808 42.4583 5.10314C42.8959 4.79309 42.7462 4.37047 42.6194 3.92974C42.5033 4.04351 42.4112 4.13555 42.3177 4.22849C42.3158 4.17828 42.3149 4.13227 42.3136 4.08355C41.9217 4.11948 41.5299 4.1515 41.1382 4.19795C41.0721 4.20479 40.9599 4.25961 40.9486 4.30987C40.8093 4.92383 40.2115 5.02512 39.9445 5.51562C39.6946 5.9784 39.3051 6.34692 39.045 6.80282C38.6018 7.57902 38.2237 8.3977 37.7978 9.18677C37.4723 9.78694 37.1009 10.3554 36.7774 10.9561C36.4322 11.5976 36.1222 12.2584 35.7952 12.9131C35.7155 13.0727 35.6337 13.2279 35.5506 13.3839C35.3598 13.7425 35.1554 14.0905 34.9785 14.4583C34.6524 15.1288 34.3222 15.8021 34.031 16.4933C33.769 17.1146 33.5776 17.7708 33.3108 18.3894C33.1457 18.7698 32.8904 19.103 32.6913 19.467C32.6 19.6324 32.5043 19.8201 32.4863 20.003C32.438 20.4867 32.3582 20.9194 32.0101 21.3092C31.8172 21.5273 31.7572 21.907 31.5941 22.3259C31.5347 22.4235 31.3576 22.6175 31.2953 22.8423C31.1125 23.5181 30.8378 24.1148 30.4712 24.716C30.0526 25.404 29.8191 26.2309 29.498 26.9943C29.371 27.2931 29.2325 27.5859 29.0815 27.8724C28.7618 28.4716 28.4641 29.0904 28.1009 29.6534C27.7093 30.2604 27.4404 30.894 27.2112 31.5889C27.0599 32.0504 26.6175 32.4035 26.347 32.8381C26.1021 33.2305 25.9116 33.6675 25.7015 34.0844C25.6131 34.2585 25.5443 34.4449 25.4454 34.6134C25.0097 35.3604 24.5679 36.1017 24.1268 36.8445C24.1095 36.8734 24.0786 36.9036 24.0794 36.9274C24.1554 38.0497 23.1446 38.608 22.8812 39.5752C22.758 40.024 22.395 40.4042 22.1529 40.8248C21.9751 41.131 21.816 41.4491 21.6521 41.7645C21.6292 41.8088 21.6263 41.868 21.5998 41.9021C20.9452 42.7211 20.746 43.8129 20.1849 44.6905C20.1434 44.7568 20.098 44.8481 20.0412 44.872C19.6513 45.034 19.6402 45.4319 19.5182 45.7856C19.3606 46.2388 19.1479 46.6798 18.9123 47.0932C18.4733 47.8628 17.9835 48.5979 17.5561 49.3735C17.3937 49.6684 17.3584 50.0018 17.0871 50.295C16.7973 50.6063 16.6978 51.1444 16.4761 51.5593C16.3151 51.8572 16.0861 52.1118 15.8963 52.3949C15.6481 52.768 15.3843 53.134 15.1704 53.5302C14.7552 54.2976 14.381 55.0913 13.9683 55.8581C13.8419 56.0943 13.6471 56.2883 13.4737 56.4886C12.799 57.2665 12.5172 58.274 12.106 59.2098C12.0132 59.4218 11.896 59.6189 11.7984 59.8282C11.7436 59.9442 11.6469 60.0937 11.6682 60.1874C11.8378 60.8981 11.6143 61.5241 11.3213 62.1873C11.1402 62.5996 11.1397 63.1051 11.0766 63.5715C11.0676 63.6289 11.1832 63.7633 11.2235 63.7502C11.3498 63.7113 11.5486 63.6438 11.5781 63.5427C11.6763 63.2212 11.8335 63.0423 12.117 62.946C12.213 62.9126 12.2858 62.7274 12.3588 62.6023C12.4718 62.4119 12.5771 62.2139 12.6975 61.9982C12.8167 62.1127 12.9144 62.2705 12.9667 62.2466C13.395 62.0554 13.6139 62.3283 13.867 62.6164C14.0935 62.8746 14.3577 62.8746 14.6611 62.5659C14.8519 62.3706 15.1368 62.3035 15.378 62.1701C15.4612 62.1238 15.5407 62.0634 15.6111 61.9963C15.6791 61.9339 15.7246 61.8348 15.7935 61.7804C16.3101 61.3588 16.8623 60.9894 17.3391 60.5184C17.8331 60.0301 18.264 59.4476 18.7129 58.8978C19.0558 58.4765 19.3825 58.0388 19.7187 57.6064C19.9991 57.2439 20.2907 56.8887 20.5587 56.5121C20.8059 56.1648 21.0522 55.8094 21.2528 55.4289C21.3176 55.3054 21.2521 55.0864 21.2278 54.916C21.2066 54.7765 21.1574 54.6419 21.1208 54.5058C21.2626 54.4858 21.4182 54.4188 21.5455 54.456C21.9184 54.5648 21.9838 54.1435 22.1673 53.954C22.2997 53.8149 22.3596 53.5829 22.454 53.3883C22.0149 52.9609 22.0382 52.9795 22.4855 52.424C22.7282 52.1225 22.8671 51.7109 23.0596 51.3542C23.1182 51.2445 23.1939 51.1477 23.2626 51.0449L23.2537 51.0528L23.236 51.0528Z" fill="#E1299A"/>
</g>
</svg>
