<svg width="453" height="11" viewBox="0 0 453 11" fill="none" xmlns="http://www.w3.org/2000/svg">
<path d="M106.42 5.44622C110.942 5.37262 115.515 5.31159 119.968 5.22364C124.473 5.13449 128.866 5.0202 133.568 4.91071C132.993 4.8048 132.658 4.74258 132.195 4.65701C134.529 4.59658 136.554 4.49786 138.93 4.66898C140.209 4.76053 146.567 4.68813 148.66 4.57444C148.326 4.5547 148.008 4.53795 147.734 4.5176C147.21 4.47751 146.652 4.43743 146.249 4.39076C146.172 4.38178 146.824 4.32314 146.97 4.32494C147.785 4.34169 148.617 4.36323 149.287 4.39734C150.196 4.44401 151.157 4.55889 151.766 4.54872C153.62 4.5176 155.61 4.46435 156.983 4.3764C159.763 4.19809 162.5 4.04432 166.541 4.04552C167.674 4.04552 168.892 4.00782 169.956 3.97132C172.23 3.89414 174.332 3.78285 176.7 3.73618C177.704 3.71583 179.223 3.82174 180.484 3.86841C181.625 3.86542 182.998 3.84507 184.285 3.85884C187.692 3.89174 190.523 3.78165 191.638 3.55548C192.376 3.40649 196.864 3.24973 200.038 3.28084C199.198 3.34726 198.314 3.39752 197.833 3.46214C197.55 3.49983 197.868 3.56027 197.919 3.61053C198.588 3.60035 199.721 3.60155 199.85 3.57702C200.373 3.47889 202.999 3.44539 201.755 3.28204C201.643 3.26708 203.814 3.13605 205.135 3.11032C210.858 2.99783 216.658 2.90868 222.39 2.80217C225.247 2.74832 226.946 2.78961 228.834 2.98646C232.188 2.97031 235.492 2.95415 238.795 2.9368C242.613 2.91646 243.592 2.8644 245.668 2.54788C247.461 2.78722 250.25 2.75969 253.373 2.69807C253.193 2.50121 254.857 2.48805 257.268 2.52574C263.163 2.62028 268.912 2.55028 274.618 2.4336C277.938 2.36539 281.37 2.32291 284.648 2.24872C286.741 2.20145 288.663 2.11708 291.134 2.03332C298.599 2.33069 306.038 2.19307 313.323 1.80116C314.764 2.23615 319.235 1.95673 322.306 1.97109C325.455 1.98545 328.759 1.91544 331.856 1.84963C332.56 1.83527 332.723 1.69167 333.229 1.58696C333.263 1.58935 334.259 1.61927 334.67 1.67073C335.803 1.81313 336.575 1.79518 337.802 1.67312C338.6 1.59294 339.93 1.53789 341.432 1.44814C341.586 1.55824 341.68 1.63064 341.749 1.66833C345.344 1.56482 348.888 1.45772 352.5 1.36198C353.264 1.34224 354.499 1.33685 355.074 1.36557C356.927 1.46131 358.541 1.43139 360.42 1.37216C364.195 1.25428 368.382 1.31113 372.2 1.26864C376.465 1.22078 381.544 1.33207 385.174 1.06042C385.748 1.01675 386.795 0.974862 387.567 0.980247C391.755 1.00717 395.375 0.892292 399.194 0.80314C401.879 0.739717 404.899 0.739717 407.774 0.721767C409.919 0.708604 412.15 0.767839 413.368 0.552438C413.737 0.487219 416.646 0.490211 418.396 0.462688C421.228 0.416616 424.025 0.364561 426.865 0.324472C429.473 0.287375 432.279 0.214379 434.038 0.48722C435.299 0.377725 436.226 0.296351 437.17 0.215575C437.375 0.216174 437.59 0.218567 437.796 0.219764C437.616 0.278999 437.333 0.337636 437.298 0.398068C437.238 0.535686 435.514 0.739718 439.778 0.725358C440.078 0.725358 440.842 0.809724 440.722 0.826477C438.499 1.08017 441.897 1.18488 443.373 1.34464C443.819 1.3925 444.085 1.47328 443.819 1.52354C442.807 1.7162 441.82 1.91306 440.284 2.08717C439.426 2.1841 437.538 2.23616 436.131 2.30856C439.632 2.55687 441.228 2.5449 444.986 2.29839C447.86 2.11051 450.349 2.2583 453 2.39651C452.03 2.44139 451.25 2.47669 450.46 2.51259C450.786 2.52157 451.087 2.52934 451.404 2.53772C450.417 2.74415 449.456 2.95117 448.401 3.1558C448.229 3.19051 447.655 3.24256 447.303 3.24077C443.004 3.21923 441.194 3.52677 437.461 3.59378C433.943 3.65601 430.777 3.80859 427.285 3.87739C421.339 3.99467 415.239 4.07006 409.241 4.17596C404.676 4.25734 400.232 4.36863 395.667 4.4488C390.794 4.53437 385.86 4.59779 380.935 4.67139C379.734 4.68934 378.558 4.70908 377.374 4.72942C374.654 4.77609 371.977 4.83174 369.223 4.86943C364.195 4.94004 359.141 5.01244 354.045 5.0609C349.463 5.10458 344.786 5.10458 340.213 5.15125C337.399 5.18057 334.722 5.26613 331.951 5.31639C330.689 5.33972 329.273 5.36186 328.038 5.34272C324.769 5.29246 321.774 5.26733 318.548 5.39417C316.746 5.46418 314.138 5.43665 311.075 5.45879C310.32 5.47555 308.707 5.54077 307.111 5.53897C302.323 5.53119 297.879 5.58564 293.228 5.68915C287.908 5.80702 282.031 5.80284 276.402 5.85609C274.197 5.87763 272.009 5.90635 269.838 5.94285C265.291 6.02123 260.658 6.08465 256.265 6.19235C251.528 6.30843 246.852 6.3539 241.85 6.36826C238.529 6.37724 235.363 6.56093 231.991 6.63871C228.945 6.70931 225.71 6.74342 222.57 6.79128C221.257 6.81163 219.902 6.81941 218.606 6.84633C212.866 6.9642 207.151 7.08626 201.428 7.20773C201.205 7.21251 200.948 7.22448 200.794 7.22029C193.569 7.0019 187.966 7.46082 181.111 7.45065C177.927 7.44646 174.735 7.58288 171.509 7.6475C169.158 7.69537 166.764 7.73127 164.379 7.77016C164.045 7.77555 163.65 7.76777 163.375 7.77674C156.743 8.00172 149.192 7.9371 142.354 8.10224C141.839 8.1142 141.153 8.12437 140.887 8.1513C139.076 8.33678 136.442 8.27994 133.885 8.29011C130.607 8.30388 127.304 8.34935 124.138 8.41158C118.243 8.52765 112.478 8.67664 106.566 8.78554C104.318 8.82682 102.061 8.79331 99.6158 8.89383C97.016 9.00154 93.2922 8.97042 90.1432 9.02487C87.8781 9.06496 85.7673 9.14872 83.5451 9.20676C80.6192 9.28215 77.7105 9.36712 74.6989 9.42037C68.8643 9.52388 62.9354 9.60107 57.1095 9.70338C55.3162 9.73449 53.6688 9.80929 52.0214 9.87151C45.6206 10.1138 38.4647 10.1073 31.5319 10.182C29.9617 10.1988 28.443 10.2311 26.8814 10.2509C26.0148 10.2622 24.8479 10.2909 24.273 10.2646C19.9314 10.0606 15.3925 10.0827 10.476 10.1366C7.42148 10.1695 4.10098 10.0899 0.917724 10.0504C0.52304 10.0462 -0.137665 9.96246 0.0253597 9.94271C0.52301 9.88049 1.34671 9.78356 2.06744 9.78356C4.36694 9.78116 5.84277 9.72432 7.01825 9.5861C7.42151 9.53943 8.77716 9.52926 9.73816 9.50952C11.2054 9.4784 12.7069 9.45268 14.3543 9.42156C13.8309 9.33899 12.9815 9.26121 13.2389 9.23668C15.3153 9.03504 13.9424 8.87349 12.5353 8.69099C11.274 8.52765 11.7802 8.38465 14.3886 8.26917C16.036 8.19677 17.0227 8.05317 18.3613 7.94367C18.8246 7.90598 19.3737 7.87247 19.9486 7.84495C20.4891 7.81802 21.2271 7.80905 21.7161 7.78033C25.4743 7.56732 28.9578 7.32679 32.9648 7.1431C37.1176 6.95283 41.768 6.81162 46.2383 6.65545C49.6618 6.53639 53.1626 6.42869 56.6461 6.315C59.5634 6.22046 62.4549 6.11875 65.4408 6.03319C68.1951 5.9542 71.0008 5.87702 73.8838 5.82855C74.819 5.813 76.1318 5.883 77.2043 5.92309C78.0795 5.9566 78.8689 6.00447 79.6926 6.04575C80.0958 5.97216 80.8337 5.89856 80.8337 5.82377C80.8337 5.60478 83.7253 5.63589 85.3212 5.56648C86.4881 5.51682 88.1269 5.52101 89.5855 5.50067C91.5504 5.80582 91.4732 5.79026 95.9778 5.63589C98.4232 5.55212 101.392 5.54195 104.103 5.49409C104.935 5.47973 105.716 5.454 106.523 5.43306L106.454 5.43665L106.42 5.44622Z" fill="#F96836"/>
</svg>
