<svg width="399" height="8" viewBox="0 0 399 8" fill="none" xmlns="http://www.w3.org/2000/svg">
<path d="M93.734 4.15963C97.7168 4.1011 101.745 4.05257 105.667 3.98262C109.635 3.91172 113.504 3.82084 117.646 3.73377C117.139 3.64955 116.845 3.60006 116.436 3.53202C118.492 3.48396 120.276 3.40545 122.369 3.54153C123.495 3.61434 129.095 3.55676 130.939 3.46636C130.644 3.45065 130.365 3.43733 130.123 3.42115C129.662 3.38927 129.171 3.35739 128.815 3.32028C128.747 3.31314 129.322 3.26651 129.45 3.26794C130.168 3.28126 130.901 3.29839 131.491 3.32551C132.292 3.36263 133.138 3.45398 133.675 3.44589C135.307 3.42115 137.061 3.3788 138.27 3.30886C140.718 3.16706 143.129 3.04478 146.689 3.04573C147.686 3.04573 148.759 3.01575 149.697 2.98673C151.699 2.92535 153.551 2.83684 155.637 2.79973C156.521 2.78355 157.859 2.86777 158.97 2.90489C159.975 2.90251 161.184 2.88633 162.317 2.89727C165.318 2.92344 167.812 2.83589 168.794 2.65603C169.444 2.53755 173.397 2.41289 176.193 2.43763C175.452 2.49045 174.674 2.53041 174.251 2.5818C174.001 2.61178 174.281 2.65984 174.326 2.69981C174.916 2.69172 175.913 2.69267 176.027 2.67316C176.488 2.59513 178.8 2.56848 177.704 2.43858C177.606 2.42668 179.518 2.32248 180.682 2.30202C185.723 2.21257 190.831 2.14167 195.88 2.05697C198.396 2.01415 199.893 2.04698 201.555 2.20353C204.51 2.19068 207.42 2.17783 210.33 2.16403C213.693 2.14785 214.554 2.10646 216.383 1.85475C217.963 2.04508 220.419 2.02319 223.17 1.97418C223.011 1.81763 224.477 1.80717 226.601 1.83714C231.793 1.91232 236.856 1.85665 241.882 1.76387C244.806 1.70962 247.829 1.67584 250.716 1.61684C252.56 1.57925 254.253 1.51216 256.43 1.44554C263.005 1.68203 269.557 1.57259 275.973 1.26092C277.243 1.60685 281.18 1.38464 283.886 1.39606C286.659 1.40748 289.569 1.35181 292.297 1.29947C292.917 1.28805 293.06 1.17385 293.506 1.09058C293.537 1.09248 294.413 1.11628 294.776 1.1572C295.774 1.27044 296.454 1.25617 297.534 1.1591C298.237 1.09534 299.409 1.05156 300.731 0.98019C300.867 1.06774 300.95 1.12532 301.011 1.15529C304.177 1.07298 307.299 0.987804 310.48 0.911672C311.153 0.89597 312.241 0.891688 312.747 0.914527C314.38 0.990659 315.801 0.966868 317.456 0.919761C320.781 0.826024 324.469 0.871228 327.832 0.837444C331.588 0.799379 336.062 0.887882 339.259 0.671859C339.765 0.637124 340.687 0.603816 341.367 0.608099C345.055 0.629511 348.245 0.538153 351.608 0.467256C353.973 0.416818 356.633 0.416819 359.165 0.402544C361.054 0.392076 363.019 0.439183 364.092 0.267887C364.417 0.216022 366.979 0.218401 368.521 0.196513C371.015 0.159875 373.479 0.118479 375.98 0.0865987C378.278 0.0570977 380.749 -0.000952428 382.298 0.216023C383.409 0.128947 384.225 0.0642354 385.057 -6.09485e-07C385.238 0.00047519 385.427 0.00237858 385.608 0.00333017C385.45 0.0504366 385.2 0.0970672 385.17 0.145125C385.117 0.254564 383.598 0.41682 387.354 0.4054C387.619 0.4054 388.291 0.472491 388.185 0.485814C386.228 0.687563 389.221 0.770832 390.521 0.897877C390.914 0.935942 391.148 1.00018 390.914 1.04015C390.022 1.19336 389.153 1.34991 387.8 1.48837C387.044 1.56546 385.382 1.60685 384.142 1.66443C387.226 1.86189 388.631 1.85238 391.941 1.65634C394.473 1.50693 396.665 1.62446 399 1.73437C398.146 1.77006 397.458 1.79813 396.763 1.82668C397.05 1.83382 397.315 1.84001 397.594 1.84667C396.725 2.01083 395.879 2.17546 394.949 2.33819C394.798 2.36579 394.292 2.40719 393.982 2.40576C390.196 2.38863 388.601 2.6332 385.314 2.68649C382.215 2.73598 379.426 2.85731 376.35 2.91203C371.113 3.00529 365.74 3.06525 360.457 3.14947C356.437 3.21418 352.522 3.30268 348.501 3.36644C344.209 3.43448 339.863 3.48492 335.525 3.54345C334.467 3.55772 333.432 3.57342 332.389 3.5896C329.993 3.62672 327.635 3.67097 325.21 3.70094C320.781 3.75709 316.33 3.81467 311.841 3.85321C307.805 3.88794 303.686 3.88794 299.658 3.92506C297.179 3.94837 294.821 4.01641 292.38 4.05638C291.269 4.07494 290.022 4.09254 288.934 4.07732C286.055 4.03735 283.417 4.01736 280.576 4.11824C278.989 4.17391 276.691 4.15202 273.993 4.16963C273.328 4.18295 271.907 4.23481 270.502 4.23339C266.285 4.2272 262.37 4.2705 258.274 4.35282C253.588 4.44655 248.411 4.44322 243.454 4.48557C241.511 4.5027 239.584 4.52554 237.672 4.55457C233.667 4.6169 229.586 4.66734 225.716 4.75298C221.545 4.84529 217.426 4.88146 213.02 4.89287C210.095 4.90001 207.307 5.04609 204.337 5.10795C201.654 5.16409 198.805 5.19121 196.039 5.22928C194.882 5.24546 193.688 5.25164 192.547 5.27306C187.491 5.36679 182.458 5.46386 177.417 5.56045C177.221 5.56426 176.994 5.57378 176.858 5.57044C170.495 5.39677 165.56 5.76172 159.521 5.75363C156.717 5.7503 153.906 5.85879 151.064 5.91018C148.994 5.94825 146.885 5.9768 144.784 6.00772C144.49 6.01201 144.142 6.00582 143.9 6.01296C138.058 6.19187 131.408 6.14048 125.384 6.2718C124.931 6.28132 124.326 6.28941 124.092 6.31082C122.497 6.45833 120.177 6.41312 117.925 6.42121C115.038 6.43216 112.129 6.46832 109.34 6.5178C104.148 6.61011 99.0696 6.72859 93.8625 6.81519C91.8825 6.84802 89.8949 6.82138 87.741 6.90132C85.4511 6.98696 82.1712 6.96222 79.3977 7.00552C77.4025 7.0374 75.5434 7.10402 73.586 7.15017C71.009 7.21012 68.447 7.27769 65.7943 7.32004C60.6553 7.40236 55.4332 7.46374 50.3017 7.5451C48.7222 7.56985 47.2712 7.62932 45.8202 7.67881C40.1823 7.87152 33.8795 7.86628 27.7731 7.92576C26.3901 7.93908 25.0524 7.96478 23.677 7.98048C22.9137 7.98952 21.8859 8.01236 21.3795 7.99142C17.5555 7.82917 13.5576 7.84677 9.2272 7.8896C6.53677 7.91577 3.61209 7.85248 0.808319 7.82108C0.460663 7.81775 -0.121277 7.75113 0.022308 7.73543C0.460632 7.68594 1.18616 7.60886 1.82098 7.60886C3.84637 7.60696 5.14624 7.56175 6.18161 7.45184C6.5368 7.41472 7.73087 7.40664 8.5773 7.39093C9.8696 7.36619 11.1922 7.34573 12.6432 7.32099C12.1822 7.25532 11.434 7.19347 11.6607 7.17396C13.4896 7.01361 12.2804 6.88513 11.041 6.74001C9.93005 6.61011 10.3759 6.49639 12.6734 6.40455C14.1244 6.34698 14.9935 6.23278 16.1725 6.14571C16.5806 6.11573 17.0642 6.08908 17.5706 6.0672C18.0467 6.04578 18.6967 6.03865 19.1274 6.01581C22.4376 5.84641 25.5059 5.65513 29.0352 5.50906C32.693 5.35775 36.7891 5.24545 40.7265 5.12126C43.7419 5.02657 46.8253 4.94092 49.8936 4.85052C52.4631 4.77534 55.0099 4.69445 57.6399 4.62641C60.0659 4.5636 62.5371 4.50222 65.0764 4.46368C65.9001 4.4513 67.0564 4.50698 68.0011 4.53886C68.772 4.5655 69.4673 4.60357 70.1927 4.6364C70.5479 4.57787 71.1979 4.51935 71.1979 4.45987C71.1979 4.28572 73.7448 4.31046 75.1504 4.25527C76.1782 4.21577 77.6217 4.2191 78.9064 4.20293C80.6371 4.4456 80.5691 4.43322 84.5367 4.31046C86.6906 4.24385 89.3054 4.23576 91.6935 4.19769C92.4266 4.18627 93.1143 4.16581 93.8247 4.14916L93.7643 4.15201L93.734 4.15963Z" fill="#E1299A"/>
</svg>
