<svg width="223" height="59" viewBox="0 0 223 59" fill="none" xmlns="http://www.w3.org/2000/svg">
<g clip-path="url(#clip0_715_623)">
<path d="M113.8 8C116.733 17.4667 120.733 23.6 125.8 26.4C130.867 29.2 136.6 30.6 143 30.6C146.6 30.6 150.6 30.2667 155 29.6C159.4 29.0667 163.667 28.4667 167.8 27.8C172.2 27 176.8 26.2667 181.6 25.6C186.533 25.0667 191.067 24.8 195.2 24.8C204.8 24.8 211.8 27.2 216.2 32C220.6 36.8 222.8 43.6667 222.8 52.6L222.8 58.8L219.2 58.8L219.2 52.6C219.2 44.8667 217.333 38.9333 213.6 34.8C209.867 30.8 203.733 28.8 195.2 28.8C187.867 28.8 178.067 29.8667 165.8 32C155.667 33.7333 148.067 34.6 143 34.6C135.133 34.6 128.4 32.6 122.8 28.6C117.333 24.7333 113.6 18.6667 111.6 10.4L111.2 10.4C109.2 18.6667 105.4 24.7333 99.8 28.6C94.3333 32.6 87.6667 34.6 79.8 34.6C74.7333 34.6 67.1333 33.7333 57 32C44.7333 29.8667 34.9333 28.8 27.6 28.8C19.0667 28.8 12.9333 30.8 9.2 34.8C5.46666 38.9333 3.6 44.8667 3.6 52.6L3.6 58.8L-3.04707e-06 58.8L-2.77606e-06 52.6C-2.38557e-06 43.6667 2.2 36.8 6.6 32C11 27.2 18 24.8 27.6 24.8C31.7333 24.8 36.2 25.0667 41 25.6C45.9333 26.2667 50.6 27 55 27.8C59.1333 28.4667 63.4 29.0667 67.8 29.6C72.2 30.2667 76.2 30.6 79.8 30.6C86.2 30.6 91.9333 29.2 97 26.4C102.067 23.6 106.067 17.4667 109 8L113.8 8Z" fill="#F96836"/>
</g>
<defs>
<clipPath id="clip0_715_623">
<rect width="223" height="59" fill="white"/>
</clipPath>
</defs>
</svg>
