<svg width="13" height="9" viewBox="0 0 13 9" fill="none" xmlns="http://www.w3.org/2000/svg">
<g clip-path="url(#clip0_831_213)">
<path d="M87.861 4.81237C91.5942 4.74856 95.3699 4.69563 99.0464 4.61936C102.765 4.54205 106.392 4.44295 110.274 4.34801C109.8 4.25617 109.523 4.20221 109.141 4.12801C111.068 4.07561 112.74 3.99 114.702 4.13839C115.757 4.21778 121.006 4.15499 122.735 4.05641C122.459 4.03929 122.197 4.02476 121.97 4.00712C121.538 3.97236 121.077 3.9376 120.744 3.89713C120.681 3.88934 121.219 3.8385 121.339 3.84005C122.012 3.85458 122.699 3.87326 123.252 3.90283C124.003 3.9433 124.796 4.04292 125.299 4.0341C126.829 4.00712 128.473 3.96095 129.606 3.88467C131.901 3.73006 134.161 3.59671 137.498 3.59775C138.433 3.59775 139.439 3.56506 140.317 3.53341C142.194 3.46648 143.93 3.36998 145.885 3.32951C146.714 3.31187 147.968 3.4037 149.009 3.44417C149.951 3.44158 151.085 3.42394 152.147 3.43587C154.959 3.46441 157.297 3.36894 158.218 3.17282C158.827 3.04362 162.532 2.90768 165.153 2.93466C164.459 2.99226 163.729 3.03584 163.333 3.09188C163.099 3.12456 163.361 3.17697 163.403 3.22055C163.956 3.21173 164.891 3.21277 164.997 3.19149C165.429 3.1064 167.597 3.07735 166.57 2.9357C166.478 2.92273 168.27 2.8091 169.361 2.78679C174.086 2.68925 178.875 2.61194 183.607 2.51959C185.966 2.47289 187.368 2.50869 188.927 2.67939C191.696 2.66538 194.424 2.65137 197.151 2.63633C200.303 2.61869 201.111 2.57355 202.825 2.29908C204.306 2.50662 206.608 2.48275 209.187 2.42931C209.038 2.25861 210.412 2.24719 212.403 2.27988C217.269 2.36186 222.015 2.30115 226.726 2.19998C229.468 2.14083 232.301 2.10399 235.007 2.03965C236.736 1.99866 238.323 1.92551 240.363 1.85287C246.526 2.11074 252.667 1.9914 258.682 1.65156C259.872 2.02876 263.562 1.78646 266.098 1.79891C268.698 1.81136 271.425 1.75066 273.983 1.69358C274.564 1.68113 274.698 1.55661 275.116 1.46581C275.145 1.46788 275.966 1.49383 276.306 1.53845C277.241 1.66193 277.879 1.64637 278.892 1.54052C279.551 1.471 280.649 1.42326 281.888 1.34544C282.016 1.4409 282.094 1.50368 282.15 1.53637C285.119 1.44661 288.044 1.35374 291.027 1.27072C291.657 1.2536 292.677 1.24893 293.152 1.27384C294.682 1.35685 296.014 1.33091 297.565 1.27954C300.682 1.17733 304.139 1.22662 307.291 1.18978C310.812 1.14827 315.005 1.24478 318.002 1.00922C318.477 0.971347 319.341 0.935028 319.978 0.939698C323.435 0.963046 326.425 0.863427 329.577 0.786119C331.794 0.731121 334.288 0.731121 336.661 0.715556C338.432 0.704141 340.274 0.755507 341.28 0.568722C341.584 0.512167 343.986 0.514762 345.431 0.490895C347.768 0.450943 350.078 0.405804 352.423 0.371041C354.576 0.338872 356.892 0.275573 358.345 0.512168C359.386 0.417219 360.151 0.346655 360.93 0.276611C361.1 0.27713 361.277 0.279205 361.447 0.280243C361.299 0.331609 361.065 0.382456 361.037 0.43486C360.987 0.554195 359.563 0.731122 363.084 0.71867C363.332 0.71867 363.962 0.791827 363.863 0.806355C362.028 1.02635 364.833 1.11715 366.052 1.25568C366.42 1.29719 366.64 1.36723 366.42 1.41081C365.584 1.57788 364.77 1.74858 363.502 1.89957C362.793 1.98362 361.235 2.02876 360.073 2.09154C362.963 2.30687 364.281 2.29649 367.384 2.08272C369.757 1.9198 371.811 2.04796 374 2.16781C373.2 2.20673 372.555 2.23734 371.903 2.26847C372.172 2.27625 372.42 2.283 372.682 2.29026C371.868 2.46927 371.074 2.64879 370.203 2.82623C370.061 2.85633 369.587 2.90147 369.296 2.89991C365.747 2.88123 364.253 3.14792 361.171 3.20603C358.267 3.25999 355.653 3.3923 352.77 3.45196C347.86 3.55366 342.824 3.61903 337.872 3.71087C334.104 3.78143 330.434 3.87794 326.666 3.94746C322.642 4.02166 318.569 4.07666 314.503 4.14047C313.511 4.15604 312.54 4.17316 311.563 4.1908C309.317 4.23127 307.107 4.27953 304.833 4.31221C300.682 4.37344 296.509 4.43622 292.302 4.47824C288.519 4.51612 284.658 4.51612 280.882 4.55659C278.559 4.58201 276.349 4.65621 274.061 4.69979C273.019 4.72003 271.851 4.73922 270.83 4.72262C268.131 4.67904 265.659 4.65725 262.996 4.76724C261.508 4.82795 259.355 4.80408 256.826 4.82328C256.202 4.8378 254.87 4.89436 253.553 4.8928C249.6 4.88606 245.931 4.93327 242.091 5.02303C237.699 5.12525 232.847 5.12161 228.2 5.16779C226.379 5.18647 224.573 5.21137 222.78 5.24302C219.026 5.31099 215.201 5.36599 211.574 5.45938C207.664 5.56004 203.803 5.59947 199.673 5.61192C196.931 5.61971 194.317 5.77899 191.534 5.84644C189.019 5.90767 186.348 5.93724 183.755 5.97875C182.672 5.99639 181.552 6.00314 180.483 6.02648C175.744 6.1287 171.026 6.23454 166.301 6.33987C166.117 6.34402 165.904 6.3544 165.777 6.35076C159.812 6.16138 155.186 6.55934 149.526 6.55052C146.898 6.54689 144.263 6.66518 141.599 6.72122C139.658 6.76273 137.682 6.79386 135.713 6.82758C135.436 6.83225 135.11 6.82551 134.884 6.83329C129.408 7.02838 123.174 6.97234 117.528 7.11554C117.103 7.12592 116.536 7.13474 116.317 7.15809C114.822 7.31893 112.647 7.26964 110.536 7.27846C107.83 7.2904 105.103 7.32983 102.489 7.38379C97.6226 7.48444 92.8622 7.61364 87.9814 7.70807C86.1254 7.74387 84.2624 7.71481 82.2435 7.80198C80.097 7.89537 77.0226 7.86839 74.4229 7.91561C72.5527 7.95037 70.8101 8.02301 68.9754 8.07334C66.5598 8.13871 64.1583 8.21239 61.6719 8.25857C56.8549 8.34833 51.9599 8.41526 47.15 8.50398C45.6694 8.53096 44.3093 8.59582 42.9492 8.64978C37.6646 8.85991 31.7567 8.8542 26.0329 8.91906C24.7366 8.93359 23.4827 8.9616 22.1935 8.97873C21.478 8.98858 20.5146 9.01349 20.0399 8.99066C16.4555 8.81373 12.7081 8.83293 8.64908 8.87962C6.1272 8.90816 3.38577 8.83915 0.757659 8.80491C0.431793 8.80128 -0.113678 8.72864 0.0209041 8.71152C0.431762 8.65756 1.11185 8.5735 1.70688 8.5735C3.60535 8.57143 4.82379 8.52214 5.79428 8.40228C6.12723 8.36181 7.24646 8.35299 8.03986 8.33587C9.25122 8.30889 10.4909 8.28658 11.851 8.2596C11.4189 8.188 10.7176 8.12055 10.9301 8.09928C12.6444 7.92443 11.511 7.78434 10.3492 7.62609C9.30786 7.48444 9.7258 7.36044 11.8793 7.2603C13.2394 7.19752 14.0541 7.07299 15.1591 6.97805C15.5417 6.94536 15.9951 6.9163 16.4697 6.89244C16.916 6.86909 17.5252 6.8613 17.929 6.8364C21.0317 6.65169 23.9078 6.44311 27.2159 6.28383C30.6445 6.11883 34.484 5.99638 38.1747 5.86097C41.0011 5.75771 43.8914 5.66432 46.7674 5.56574C49.1759 5.48376 51.5632 5.39556 54.0284 5.32136C56.3023 5.25288 58.6187 5.18594 60.9989 5.14392C61.7711 5.13043 62.8549 5.19113 63.7404 5.2259C64.463 5.25495 65.1147 5.29646 65.7947 5.33226C66.1277 5.26844 66.7368 5.20462 66.7368 5.13977C66.7368 4.94987 69.1241 4.97685 70.4417 4.91666C71.4052 4.8736 72.7581 4.87723 73.9624 4.85959C75.5846 5.1242 75.5209 5.11071 79.2399 4.97685C81.2588 4.90421 83.7098 4.89539 85.9483 4.85388C86.6355 4.84143 87.2801 4.81912 87.946 4.80096L87.8893 4.80407L87.861 4.81237Z" fill="#2DA342"/>
</g>
<defs>
<clipPath id="clip0_831_213">
<rect width="12.2941" height="8.99999" fill="white"/>
</clipPath>
</defs>
</svg>
