<svg width="453" height="10" viewBox="0 0 453 10" fill="none" xmlns="http://www.w3.org/2000/svg">
<path d="M106.42 5.19953C110.942 5.12638 115.515 5.06571 119.968 4.97828C124.473 4.88966 128.866 4.77605 133.568 4.66721C132.993 4.56193 132.658 4.50008 132.195 4.41502C134.529 4.35495 136.554 4.25681 138.93 4.42692C140.209 4.51792 146.567 4.44595 148.66 4.33294C148.326 4.31332 148.008 4.29666 147.734 4.27644C147.21 4.23659 146.652 4.19674 146.249 4.15035C146.172 4.14143 146.824 4.08314 146.97 4.08492C147.785 4.10158 148.617 4.12299 149.287 4.15689C150.196 4.20328 151.157 4.31748 151.766 4.30737C153.62 4.27644 155.61 4.22351 156.983 4.13607C159.763 3.95883 162.5 3.80597 166.541 3.80716C167.674 3.80716 168.892 3.76969 169.956 3.73341C172.23 3.65668 174.332 3.54605 176.7 3.49966C177.704 3.47944 179.223 3.58472 180.484 3.63111C181.625 3.62813 182.998 3.60791 184.285 3.62159C187.692 3.6543 190.523 3.54487 191.638 3.32004C192.376 3.17194 196.864 3.01611 200.038 3.04704C199.198 3.11306 198.314 3.16302 197.833 3.22725C197.55 3.26473 197.868 3.3248 197.919 3.37476C198.588 3.36465 199.721 3.36584 199.85 3.34145C200.373 3.24391 202.999 3.2106 201.755 3.04823C201.643 3.03336 203.814 2.9031 205.135 2.87753C210.858 2.76571 216.658 2.67709 222.39 2.57122C225.247 2.51769 226.946 2.55873 228.834 2.75441C232.188 2.73835 235.492 2.72229 238.795 2.70504C242.613 2.68482 243.592 2.63307 245.668 2.31844C247.461 2.55635 250.25 2.52899 253.373 2.46773C253.193 2.27204 254.857 2.25896 257.268 2.29643C263.163 2.3904 268.912 2.32082 274.618 2.20483C277.938 2.13703 281.37 2.0948 284.648 2.02105C286.741 1.97406 288.663 1.8902 291.134 1.80693C298.599 2.10253 306.038 1.96573 313.323 1.57616C314.764 2.00856 319.235 1.7308 322.306 1.74507C325.455 1.75935 328.759 1.68976 331.856 1.62433C332.56 1.61006 332.723 1.46731 333.229 1.36323C333.263 1.36561 334.259 1.39534 334.67 1.4465C335.803 1.58805 336.575 1.57021 337.802 1.44887C338.6 1.36917 339.93 1.31445 341.432 1.22524C341.586 1.33468 341.68 1.40665 341.749 1.44412C345.344 1.34122 348.888 1.23475 352.5 1.13959C353.264 1.11996 354.499 1.11461 355.074 1.14316C356.927 1.23832 358.541 1.20858 360.42 1.1497C364.195 1.03253 368.382 1.08903 372.2 1.04681C376.465 0.999224 381.544 1.10985 385.174 0.839824C385.748 0.796405 386.795 0.75477 387.567 0.760123C391.755 0.786889 395.375 0.672691 399.194 0.58407C401.879 0.521023 404.899 0.521023 407.774 0.50318C409.919 0.490095 412.15 0.548978 413.368 0.334858C413.737 0.270028 416.646 0.273001 418.396 0.245642C421.228 0.199844 424.025 0.148098 426.865 0.108248C429.473 0.0713723 432.279 -0.00119044 434.038 0.270028C435.299 0.161184 436.226 0.0802943 437.17 -6.91972e-07C437.375 0.000594057 437.59 0.00297329 437.796 0.00416278C437.616 0.0630458 437.333 0.121334 437.298 0.181407C437.238 0.318206 435.514 0.521025 439.778 0.50675C440.078 0.50675 440.842 0.590614 440.722 0.607268C438.499 0.859454 441.897 0.96354 443.373 1.12235C443.819 1.16993 444.085 1.25022 443.819 1.30018C442.807 1.4917 441.82 1.68739 440.284 1.86047C439.426 1.95682 437.538 2.00856 436.131 2.08053C439.632 2.32737 441.228 2.31547 444.986 2.07042C447.86 1.88366 450.349 2.03057 453 2.16797C452.03 2.21257 451.25 2.24767 450.46 2.28335C450.786 2.29227 451.087 2.30001 451.404 2.30833C450.417 2.51353 449.456 2.71932 448.401 2.92274C448.229 2.95724 447.655 3.00898 447.303 3.0072C443.004 2.98579 441.194 3.2915 437.461 3.35812C433.943 3.41997 430.777 3.57164 427.285 3.64004C421.339 3.75662 415.239 3.83156 409.241 3.93683C404.676 4.01772 400.232 4.12835 395.667 4.20805C390.794 4.29311 385.86 4.35615 380.935 4.42931C379.734 4.44715 378.558 4.46678 377.374 4.487C374.654 4.53339 371.977 4.58871 369.223 4.62618C364.195 4.69636 359.141 4.76833 354.045 4.81651C349.463 4.85993 344.786 4.85993 340.213 4.90632C337.399 4.93546 334.722 5.02052 331.951 5.07048C330.689 5.09367 329.273 5.11568 328.038 5.09665C324.769 5.04669 321.774 5.02171 318.548 5.1478C316.746 5.21739 314.138 5.19003 311.075 5.21203C310.32 5.22869 308.707 5.29352 307.111 5.29173C302.323 5.284 297.879 5.33813 293.228 5.44102C287.908 5.55819 282.031 5.55403 276.402 5.60696C274.197 5.62838 272.009 5.65693 269.838 5.69321C265.291 5.77112 260.658 5.83417 256.265 5.94123C251.528 6.05662 246.852 6.10182 241.85 6.11609C238.529 6.12501 235.363 6.30761 231.991 6.38493C228.945 6.45512 225.71 6.48902 222.57 6.5366C221.257 6.55682 219.902 6.56455 218.606 6.59132C212.866 6.70849 207.151 6.82983 201.428 6.95057C201.205 6.95532 200.948 6.96722 200.794 6.96306C193.569 6.74596 187.966 7.20216 181.111 7.19204C177.927 7.18788 174.735 7.32349 171.509 7.38773C169.158 7.43531 166.764 7.47099 164.379 7.50966C164.045 7.51501 163.65 7.50728 163.375 7.5162C156.743 7.73983 149.192 7.6756 142.354 7.83976C141.839 7.85165 141.153 7.86176 140.887 7.88853C139.076 8.07291 136.442 8.0164 133.885 8.02652C130.607 8.0402 127.304 8.0854 124.138 8.14725C118.243 8.26264 112.478 8.41074 106.566 8.51899C104.318 8.56003 102.061 8.52672 99.6158 8.62665C97.016 8.73371 93.2922 8.70278 90.1432 8.7569C87.8781 8.79675 85.7673 8.88002 83.5451 8.93771C80.6192 9.01266 77.7105 9.09711 74.6989 9.15005C68.8643 9.25295 62.9354 9.32967 57.1095 9.43138C55.3162 9.46231 53.6688 9.53665 52.0214 9.59851C45.6206 9.83939 38.4647 9.83285 31.5319 9.9072C29.9617 9.92385 28.443 9.95597 26.8814 9.9756C26.0148 9.9869 24.8479 10.0154 24.273 9.98928C19.9314 9.78646 15.3925 9.80846 10.476 9.862C7.42148 9.89471 4.10098 9.8156 0.917724 9.77635C0.52304 9.77218 -0.137665 9.68891 0.0253597 9.66929C0.52301 9.60743 1.34671 9.51108 2.06744 9.51108C4.36694 9.5087 5.84277 9.45219 7.01825 9.3148C7.42151 9.26841 8.77716 9.2583 9.73816 9.23867C11.2054 9.20774 12.7069 9.18216 14.3543 9.15124C13.8309 9.06916 12.9815 8.99184 13.2389 8.96745C15.3153 8.76701 13.9424 8.60642 12.5353 8.42501C11.274 8.26264 11.7802 8.12049 14.3886 8.00569C16.036 7.93373 17.0227 7.79098 18.3613 7.68213C18.8246 7.64466 19.3737 7.61136 19.9486 7.584C20.4891 7.55723 21.2271 7.54831 21.7161 7.51976C25.4743 7.30802 28.9578 7.06892 32.9648 6.88632C37.1176 6.69718 41.768 6.55682 46.2383 6.40158C49.6618 6.28322 53.1626 6.17616 56.6461 6.06315C59.5634 5.96917 62.4549 5.86806 65.4408 5.78301C68.1951 5.7045 71.0008 5.62777 73.8838 5.5796C74.819 5.56413 76.1318 5.63372 77.2043 5.67357C78.0795 5.70688 78.8689 5.75446 79.6926 5.7955C80.0958 5.72234 80.8337 5.64919 80.8337 5.57484C80.8337 5.35715 83.7253 5.38808 85.3212 5.31908C86.4881 5.26972 88.1269 5.27388 89.5855 5.25366C91.5504 5.557 91.4732 5.54153 95.9778 5.38808C98.4232 5.30481 101.392 5.2947 104.103 5.24712C104.935 5.23284 105.716 5.20727 106.523 5.18645L106.454 5.19002L106.42 5.19953Z" fill="#2DA342"/>
</svg>
