<svg width="461" height="26" viewBox="0 0 461 26" fill="none" xmlns="http://www.w3.org/2000/svg">
<path d="M114.42 13.1995C118.942 13.1264 123.515 13.0657 127.968 12.9783C132.473 12.8897 136.866 12.7761 141.568 12.6672C140.993 12.5619 140.658 12.5001 140.195 12.415C142.529 12.355 144.554 12.2568 146.93 12.4269C148.209 12.5179 154.567 12.446 156.66 12.3329C156.326 12.3133 156.008 12.2967 155.734 12.2764C155.21 12.2366 154.652 12.1967 154.249 12.1503C154.172 12.1414 154.824 12.0831 154.97 12.0849C155.785 12.1016 156.617 12.123 157.287 12.1569C158.196 12.2033 159.157 12.3175 159.766 12.3074C161.62 12.2764 163.61 12.2235 164.983 12.1361C167.763 11.9588 170.5 11.806 174.541 11.8072C175.674 11.8072 176.892 11.7697 177.956 11.7334C180.23 11.6567 182.332 11.5461 184.7 11.4997C185.704 11.4794 187.223 11.5847 188.484 11.6311C189.625 11.6281 190.998 11.6079 192.285 11.6216C195.692 11.6543 198.523 11.5449 199.638 11.32C200.376 11.1719 204.864 11.0161 208.038 11.047C207.198 11.1131 206.314 11.163 205.833 11.2273C205.55 11.2647 205.868 11.3248 205.919 11.3748C206.588 11.3646 207.721 11.3658 207.85 11.3415C208.373 11.2439 210.999 11.2106 209.755 11.0482C209.643 11.0334 211.814 10.9031 213.135 10.8775C218.858 10.7657 224.658 10.6771 230.39 10.5712C233.247 10.5177 234.946 10.5587 236.834 10.7544C240.188 10.7383 243.492 10.7223 246.795 10.705C250.613 10.6848 251.592 10.6331 253.668 10.3184C255.461 10.5563 258.25 10.529 261.373 10.4677C261.193 10.272 262.857 10.259 265.268 10.2964C271.163 10.3904 276.912 10.3208 282.618 10.2048C285.938 10.137 289.37 10.0948 292.648 10.021C294.741 9.97406 296.663 9.8902 299.134 9.80693C306.599 10.1025 314.038 9.96573 321.323 9.57616C322.764 10.0086 327.235 9.7308 330.306 9.74507C333.455 9.75935 336.759 9.68976 339.856 9.62433C340.56 9.61006 340.723 9.46731 341.229 9.36323C341.263 9.36561 342.259 9.39534 342.67 9.4465C343.803 9.58805 344.575 9.57021 345.802 9.44887C346.6 9.36917 347.93 9.31445 349.432 9.22524C349.586 9.33468 349.68 9.40665 349.749 9.44412C353.344 9.34122 356.888 9.23475 360.5 9.13959C361.264 9.11996 362.499 9.11461 363.074 9.14316C364.927 9.23832 366.541 9.20858 368.42 9.1497C372.195 9.03253 376.382 9.08903 380.2 9.04681C384.465 8.99922 389.544 9.10985 393.174 8.83982C393.748 8.7964 394.795 8.75477 395.567 8.76012C399.755 8.78689 403.375 8.67269 407.194 8.58407C409.879 8.52102 412.899 8.52102 415.774 8.50318C417.919 8.4901 420.15 8.54898 421.368 8.33486C421.737 8.27003 424.646 8.273 426.396 8.24564C429.228 8.19984 432.025 8.1481 434.865 8.10825C437.473 8.07137 440.279 7.99881 442.038 8.27003C443.299 8.16118 444.226 8.08029 445.17 8C445.375 8.00059 445.59 8.00297 445.796 8.00416C445.616 8.06305 445.333 8.12133 445.298 8.18141C445.238 8.31821 443.514 8.52102 447.778 8.50675C448.078 8.50675 448.842 8.59061 448.722 8.60727C446.499 8.85945 449.897 8.96354 451.373 9.12235C451.819 9.16993 452.085 9.25022 451.819 9.30018C450.807 9.4917 449.82 9.68739 448.284 9.86047C447.426 9.95682 445.538 10.0086 444.131 10.0805C447.632 10.3274 449.228 10.3155 452.986 10.0704C455.86 9.88366 458.349 10.0306 461 10.168C460.03 10.2126 459.25 10.2477 458.46 10.2834C458.786 10.2923 459.087 10.3 459.404 10.3083C458.417 10.5135 457.456 10.7193 456.401 10.9227C456.229 10.9572 455.655 11.009 455.303 11.0072C451.004 10.9858 449.194 11.2915 445.461 11.3581C441.943 11.42 438.777 11.5716 435.285 11.64C429.339 11.7566 423.239 11.8316 417.241 11.9368C412.676 12.0177 408.232 12.1284 403.667 12.2081C398.794 12.2931 393.86 12.3562 388.935 12.4293C387.734 12.4472 386.558 12.4668 385.374 12.487C382.654 12.5334 379.977 12.5887 377.223 12.6262C372.195 12.6964 367.141 12.7683 362.045 12.8165C357.463 12.8599 352.786 12.8599 348.213 12.9063C345.399 12.9355 342.722 13.0205 339.951 13.0705C338.689 13.0937 337.273 13.1157 336.038 13.0966C332.769 13.0467 329.774 13.0217 326.548 13.1478C324.746 13.2174 322.138 13.19 319.075 13.212C318.32 13.2287 316.707 13.2935 315.111 13.2917C310.323 13.284 305.879 13.3381 301.228 13.441C295.908 13.5582 290.031 13.554 284.402 13.607C282.197 13.6284 280.009 13.6569 277.838 13.6932C273.291 13.7711 268.658 13.8342 264.265 13.9412C259.528 14.0566 254.852 14.1018 249.85 14.1161C246.529 14.125 243.363 14.3076 239.991 14.3849C236.945 14.4551 233.71 14.489 230.57 14.5366C229.257 14.5568 227.902 14.5646 226.606 14.5913C220.866 14.7085 215.151 14.8298 209.428 14.9506C209.205 14.9553 208.948 14.9672 208.794 14.9631C201.569 14.746 195.966 15.2022 189.111 15.192C185.927 15.1879 182.735 15.3235 179.509 15.3877C177.158 15.4353 174.764 15.471 172.379 15.5097C172.045 15.515 171.65 15.5073 171.375 15.5162C164.743 15.7398 157.192 15.6756 150.354 15.8398C149.839 15.8517 149.153 15.8618 148.887 15.8885C147.076 16.0729 144.442 16.0164 141.885 16.0265C138.607 16.0402 135.304 16.0854 132.138 16.1473C126.243 16.2626 120.478 16.4107 114.566 16.519C112.318 16.56 110.061 16.5267 107.616 16.6266C105.016 16.7337 101.292 16.7028 98.1432 16.7569C95.8781 16.7968 93.7673 16.88 91.5451 16.9377C88.6192 17.0127 85.7105 17.0971 82.6989 17.15C76.8643 17.2529 70.9354 17.3297 65.1095 17.4314C63.3162 17.4623 61.6688 17.5367 60.0214 17.5985C53.6206 17.8394 46.4647 17.8329 39.5319 17.9072C37.9617 17.9239 36.443 17.956 34.8814 17.9756C34.0148 17.9869 32.8479 18.0154 32.273 17.9893C27.9314 17.7865 23.3925 17.8085 18.476 17.862C15.4215 17.8947 12.101 17.8156 8.91772 17.7763C8.52304 17.7722 7.86233 17.6889 8.02536 17.6693C8.52301 17.6074 9.34671 17.5111 10.0674 17.5111C12.3669 17.5087 13.8428 17.4522 15.0182 17.3148C15.4215 17.2684 16.7772 17.2583 17.7382 17.2387C19.2054 17.2077 20.7069 17.1822 22.3543 17.1512C21.8309 17.0692 20.9815 16.9918 21.2389 16.9674C23.3153 16.767 21.9424 16.6064 20.5353 16.425C19.274 16.2626 19.7802 16.1205 22.3886 16.0057C24.036 15.9337 25.0227 15.791 26.3613 15.6821C26.8246 15.6447 27.3737 15.6114 27.9486 15.584C28.4891 15.5572 29.2271 15.5483 29.7161 15.5198C33.4743 15.308 36.9578 15.0689 40.9648 14.8863C45.1176 14.6972 49.768 14.5568 54.2383 14.4016C57.6618 14.2832 61.1626 14.1762 64.6461 14.0631C67.5634 13.9692 70.4549 13.8681 73.4408 13.783C76.1951 13.7045 79.0008 13.6278 81.8838 13.5796C82.819 13.5641 84.1318 13.6337 85.2043 13.6736C86.0795 13.7069 86.8689 13.7545 87.6926 13.7955C88.0958 13.7223 88.8337 13.6492 88.8337 13.5748C88.8337 13.3571 91.7253 13.3881 93.3212 13.3191C94.4881 13.2697 96.1269 13.2739 97.5855 13.2537C99.5504 13.557 99.4732 13.5415 103.978 13.3881C106.423 13.3048 109.392 13.2947 112.103 13.2471C112.935 13.2328 113.716 13.2073 114.523 13.1864L114.454 13.19L114.42 13.1995Z" fill="#FCC837"/>
</svg>
